<?xml version="1.0" encoding="UTF-8"?>
<svg xmlns="http://www.w3.org/2000/svg" version="1.1" viewBox="0 0 265 265">
  <defs>
    <style>
      .cls-1 {
        fill: #fff;
      }

      .cls-2 {
        fill: #dc0073;
      }
    </style>
  </defs>
  <!-- Generator: Adobe Illustrator 28.7.1, SVG Export Plug-In . SVG Version: 1.2.0 Build 142)  -->
  <g>
    <g id="Calque_1">
      <circle class="cls-1" cx="132.5" cy="132.5" r="132.5"/>
      <g>
        <path class="cls-2" d="M63.2,89.1v112c0,5.7,5,11.1,10.9,10.9s10.9-4.8,10.9-10.9v-112c0-5.7-5-11.1-10.9-10.9s-10.9,4.8-10.9,10.9h0Z"/>
        <g>
          <path class="cls-2" d="M71.2,210.6h103.2c5.7,0,11.1-5,10.9-10.9-.3-5.9-4.8-10.9-10.9-10.9h-103.2c-5.7,0-11.1,5-10.9,10.9.3,5.9,4.8,10.9,10.9,10.9h0Z"/>
          <path class="cls-2" d="M185.7,198.4v-109.8c0-5.7-5-11.1-10.9-10.9-5.9.3-10.9,4.8-10.9,10.9v109.8c0,5.7,5,11.1,10.9,10.9,5.9-.3,10.9-4.8,10.9-10.9h0Z"/>
          <path class="cls-2" d="M162.6,76.4h-89.6c-5.7,0-11.1,5-10.9,10.9.3,5.9,4.8,10.9,10.9,10.9h89.6c5.7,0,11.1-5,10.9-10.9s-4.8-10.9-10.9-10.9h0Z"/>
          <path class="cls-2" d="M155.5,98.6c6.9,0,13.8,0,20.6,0s5.7-1.2,7.7-3.2,3.3-5,3.2-7.7-1-5.7-3.2-7.7-4.7-3.2-7.7-3.2c-6.9,0-13.8,0-20.6,0s-5.7,1.2-7.7,3.2-3.3,5-3.2,7.7,1,5.7,3.2,7.7,4.7,3.2,7.7,3.2h0Z"/>
          <path class="cls-2" d="M94.5,132.9h56.6c3.4,0,6.7-3,6.5-6.5s-2.9-6.5-6.5-6.5h-56.6c-3.4,0-6.7,3-6.5,6.5s2.9,6.5,6.5,6.5h0Z"/>
          <path class="cls-2" d="M94.9,156.2h55.8c3.4,0,6.7-3,6.5-6.5s-2.9-6.5-6.5-6.5h-55.8c-3.4,0-6.7,3-6.5,6.5s2.9,6.5,6.5,6.5h0Z"/>
          <path class="cls-2" d="M94.5,179.4h60.2c3.4,0,6.7-3,6.5-6.5s-2.9-6.5-6.5-6.5h-60.2c-3.4,0-6.7,3-6.5,6.5s2.9,6.5,6.5,6.5h0Z"/>
          <path class="cls-2" d="M89.2,67h108.5c3.4,0,6.7-3,6.5-6.5s-2.9-6.5-6.5-6.5h-108.5c-3.4,0-6.7,3-6.5,6.5s2.9,6.5,6.5,6.5h0Z"/>
          <path class="cls-2" d="M191.6,62.3v122.1c0,3.4,3,6.7,6.5,6.5s6.5-2.9,6.5-6.5V62.3c0-3.4-3-6.7-6.5-6.5s-6.5,2.9-6.5,6.5h0Z"/>
        </g>
      </g>
    </g>
  </g>
</svg>