<?xml version="1.0" encoding="UTF-8"?>
<svg xmlns="http://www.w3.org/2000/svg" version="1.1" viewBox="0 0 212 146">
  <defs>
    <style>
      .cls-1 {
        fill: #005387;
      }
    </style>
  </defs>
  <!-- Generator: Adobe Illustrator 28.6.0, SVG Export Plug-In . SVG Version: 1.2.0 Build 709)  -->
  <g>
    <g id="Calque_1">
      <g>
        <path class="cls-1" d="M202,20H53c-5.5,0-10-4.5-10-10S47.5,0,53,0h149c5.5,0,10,4.5,10,10s-4.5,10-10,10Z"/>
        <path class="cls-1" d="M202,83H10c-5.5,0-10-4.5-10-10s4.5-10,10-10h192c5.5,0,10,4.5,10,10s-4.5,10-10,10Z"/>
        <path class="cls-1" d="M202,146h-98c-5.5,0-10-4.5-10-10s4.5-10,10-10h98c5.5,0,10,4.5,10,10s-4.5,10-10,10Z"/>
      </g>
    </g>
  </g>
</svg>