<?xml version="1.0" encoding="UTF-8"?>
<svg xmlns="http://www.w3.org/2000/svg" version="1.1" viewBox="0 0 265 265">
  <defs>
    <style>
      .cls-1 {
        fill: #fff;
      }

      .cls-2 {
        fill: #dc0073;
      }
    </style>
  </defs>
  <!-- Generator: Adobe Illustrator 28.7.1, SVG Export Plug-In . SVG Version: 1.2.0 Build 142)  -->
  <g>
    <g id="Calque_1">
      <circle class="cls-1" cx="132.5" cy="132.5" r="132.5"/>
      <g>
        <path class="cls-2" d="M78.3,88.6c0,.3-.3.5-.4.8.1-.3.3-.5.4-.8Z"/>
        <path class="cls-2" d="M147.1,186.7c-3.9-5.6-8.3-10.6-13-15.1l-.3-.3c-4.5-4.3-9.4-8.4-14.3-12.3-2.1-1.7-4.4-3.5-6.7-5.1-1.1-.8-2-1.5-3.1-2.3-1.9-1.5-3.9-2.8-5.7-4.3-.5-.4-1.2-.9-1.7-1.3h-.1c0-.1-.3-.3-.3-.4h0s-.3-.1-.3-.3c-.8-.7-1.6-1.3-2.5-2-.7-.5-1.3-1.1-2-1.6-2.4-2-4.8-4.1-7.1-6.4h0c-.1-.1-.4-.4-.5-.5-1.3-1.3-2.7-2.7-3.9-4.1-.3-.3-.5-.5-.7-.8-.4-.4-.7-.8-1.1-1.2-.3-.4-.7-.8-.9-1.1-1.1-1.5-2.1-3.1-3.1-4.7-.7-1.1-1.3-2.3-2-3.3h0c-.4-.8-.8-1.5-1.2-2.3,0-.3-.3-.5-.4-.8,0-.3-.1-.4-.3-.5,0,.3.3.7.5,1.1-.9-1.2-1.3-3.5-1.7-4.9-.5-1.6-.8-3.3-1.2-5.1h0v-6.8c.1-.9.3-1.7.5-2.5.3-1.2.7-2.4,1.1-3.6,0-.1.3-.4.3-.7h0c.3-.4.4-.8.7-1.2.4-.8,1.3-1.9,1.9-2.8-.4.5-.7.4,0-.3l.5-.5h0c.5-.5.9-1.1,1.5-1.6.4-.4.9-.8,1.3-1.2h0c1.1-.7,2.1-1.2,3.2-1.9.7-.3,1.3-.4,2-.7.3,0,.5-.1.9-.3h5.3c2.1.4,4.1.9,6.1,1.6.8.3,1.7.7,2.5.9h0c.4.1.8.4,1.2.5.1,0,.3.1.5.3h0s.3,0,.4.1h0c.3,0,.5.3.8.4,1.1.5,2.1,1.1,3.2,1.7,2.1,1.2,4.4,2.5,6.5,3.9.5.3,1.1.7,1.6,1.1h0c.5.3.9.7,1.5.9.3.1.5.4.9.5.5.4,1.1.8,1.6,1.1.3.1.5.4.8.5s1.2.9,1.9,1.3h0c1.5,1.1,2.8,2.3,4.1,3.5.5.5,1.2.9,1.9,1.3,1.1.7,2.4,1.2,3.6,1.6h0c.7.1,1.3.3,2,.4h0c.9.1,2,.1,2.9,0,.5,0,.9,0,1.5-.3,2.1-.4,4.3-1.5,5.9-3.2h0c0-.1.3-.3.3-.4.8-.8,1.3-1.9,1.9-2.9.7-1.5,1.2-3.2,1.3-4.9v-.4c.3-3.5-.8-6.9-3.6-9.4-2.5-2.1-5.1-4.3-7.7-6.3-4.5-3.5-9.2-6.7-14.2-9.6-7.2-4.3-15.4-8.1-23.8-9.6-9.8-1.6-19.4-.8-28.3,3.9-7.1,3.7-13.1,10.2-17,17.1-8.8,16-7.3,34.2.3,50.4,7.5,15.9,21.1,27.7,34.7,38.1,3.6,2.8,7.3,5.5,11,8.3.8.7,1.7,1.3,2.5,1.9.1,0,.7.5,1.2.9h0s.1,0,.3.1h0c.5.4,1.3,1.1,1.6,1.2.8.7,1.6,1.3,2.4,2,3.3,2.8,6.7,5.7,9.8,8.8s1.2,1.2,1.7,1.9c.9,1.1,1.9,2,2.8,3.1.3.3.4.5.7.8h0c.8,1.1.4.7,0,.1.5.8,1.3,1.6,1.9,2.4,3.5,4.9,10,7.9,15.8,5.5.8-.8,1.6-1.7,2.1-2.7,1.7-3.1,3.6-6,5.7-8.8h.1c0-2.4-.4-4.7-1.9-6.7l1.1.7ZM87.5,82.9c.5-.1,1.2-.3,1.6-.3-.8,0-1.3.1-1.6.3Z"/>
        <path class="cls-2" d="M165.6,84.6c.4,0,.7-.3,1.1-.4.4,0,.3,0-1.2.4h.1Z"/>
        <path class="cls-2" d="M214.1,91.5c-6.5-17.4-19.6-31.8-38.7-33.7-15.5-1.6-30.3,6.8-38.2,19.6-1.6,2.4-2.8,5.1-3.9,7.9-1.7,4.9.8,11,5.1,13.9,1.2.8,2.4,1.5,3.7,1.7.9.1,1.7.3,2.7.4h.4c2,0,4-.4,5.7-1.2.9-.4,1.7-.9,2.5-1.6.4-.3.7-.7,1.1-.9h0c1.3-1.5,2.5-3.2,3.2-5.3.3-.5.5-.9.8-1.5.3-.4.5-.8.8-1.2h0c.8-.8,1.6-1.6,2.4-2.4.7-.4,1.2-.9,1.7-1.3.5-.4,1.2-.7,1.9-1.1h-.3.3c.4-.1.8-.3,1.1-.4.7-.3,1.5-.5,2.1-.7.4,0,.7-.1,1.1-.3,1.3,0,2.9-.1,4.3,0,.5,0,.9.1,1.5.3.5.1,1.2.4,1.7.5,1.1.7,2.3,1.3,3.3,2h0s.3.3.4.3h0c.7.5,1.2,1.2,1.9,1.7.5.5,1.1,1.2,1.6,1.7,0,.1.3.3.3.4h0c.5.8,1.7,2.7,1.9,2.9.8,1.5,1.5,2.8,2.3,4.3h0c.1.5.3,1.1.5,1.5,0,.4.3.8.4,1.2,0,.3.3.7.3.9.4,1.6.8,3.2,1.2,4.8,0,.8,0,1.7.1,2.5v4.1c0,.1,0,.4-.1.5,0,.4-.3.7-.3.8-.1.5-.3,1.2-.5,1.7-.1.4-.3.7-.3.8,0,0,.3-.5.7-1.5,0,.7-.9,2.1-1.5,3.1-.3.3-.4.5-.5.8-.4.8-.9,1.5-1.5,2.1-.1.3-.4.5-.5.9h0c-.8,1.2-2,2.3-2.9,3.2-.4.5-.9,1.1-1.3,1.5,0,.1-.3.3-.4.4l-1.6,1.6c-.1.1-.3.3-.5.4-.4.4-.8.8-1.1,1.2h0c-.5.7-1.2,1.2-1.7,1.7-2.4,2.3-4.8,4.4-7.2,6.7h0c-.7.5-1.2,1.1-1.9,1.6-.5.4-1.1.8-1.5,1.3-.7.7-1.5,1.2-2.1,1.7-.1.1-.4.4-.7.5-4.3,3.6-8.5,7.1-12.7,10.7-1.5,1.2-2.8,2.4-4.3,3.7-3.2,2.9-6.4,5.9-9.5,9.1-1.1,1.1-2,2-2.9,3.1h0c-.1.3-.4.4-.5.7-4.9,5.5-9.4,11.4-13.1,17.9-.7,1.1-1.1,2.3-1.3,3.5.9,1.1,1.9,2,2.8,3.1.3.3.4.5.7.8h0c.5.8,1.3,1.6,1.9,2.4,3.5,4.9,10,7.9,15.8,5.5.8-.8,1.6-1.7,2.1-2.7,1.7-3.1,3.6-6,5.7-8.8h.1c.5-.8,1.1-1.3,1.5-2,1.2-1.5,2.4-2.8,3.7-4.1,4.9-5.2,10.3-10,15.8-14.7,11-9.2,22.3-18,31.9-28.6,6.1-6.8,12-14.6,14.2-23.8,2.3-9.4,1.5-19.6-2-28.7l.5.5ZM192,111.6v.9-.9Z"/>
        <path class="cls-2" d="M85.2,109.6l11.5-3.7c-4.8-6.3-9.6-12.4-14.4-18.7-3.3,7.6-4.5,15.2-2.3,23.2,2,7.5,11.8,12.3,18.7,7.6s8-5.5,12-8.1c-6.3-4.8-12.4-9.6-18.7-14.4,0,.3-.9,3.1-.8,3.1.8-1.7.9-2,.3-.8-.3.5-.5.9-.8,1.5-.8,1.1-.5.9.5-.5-.4.4-.7.8-1.1,1.2-.7.7-3.5,2.8-.5.7,6.4,3.6,12.8,7.3,19.1,11,0-5.3-.4-10.7-1.1-16s-1.6-7.3-5.1-10-7.3-3.6-11.1-2.3c-10.3,3.7-19.2,10.8-24.3,20.7s-2.3,9.9.9,14.2c3.1,4,8.4,5.9,13.4,4.5,9.1-2.4,17.9-6.3,25.6-11.6l-18.7-7.6c0-.9-.1-2.1,0-.5s0,1.3,0,1.9v4.3c0,1.3-.3,2.5,0,.7s0,.3-.1.7c-.3,1.5-.7,2.8-1.1,4.1-3.3,10.6,9.4,20,18.7,14.4s13.4-9.2,19.1-15c-6-6-12-12-18-18-8.3,9.5-15.6,19.9-21.4,31.1-2.5,4.9-2.3,11.5,2,15.4s3.5,2.5,5.6,3.2,7.5.5,9.8-1.3c11.5-8.7,22.2-18,32.1-28.5l-21.8-8.9v3.6c0,1.2-.3,2.3,0,.3s0,.1-.1.7c-.3,1.2-.5,2.3-.9,3.5s-.4.9-.5,1.5c-.5,1.5,1.5-2.8.1-.5s-.9,1.9-1.5,2.8-.8,1.1-1.1,1.6c-.8,1.3,1.6-1.9.5-.7s-1.6,1.7-2.4,2.7-1.1.8-1.5,1.3c-1.1,1.1,2.5-1.9.4-.3l17.4,4.5c-1.6-3.5-3.1-6.8-4.7-10.3s-3.3-8.3-7.1-11.1c-5.9-4.5-12.7-3.5-19-.3s-6.5,3.5-9.8,5.3c5.1,6.7,10.3,13.4,15.4,20,.7-.5,1.3-1.1,2-1.7,1.3-1.1,0,.3-.5.4,1.2-.4,2.8-2,4-2.8,2.5-1.7,5.2-3.2,8-4.5s1.3-.7,2-.9c1.7-.8.8-.7-.3,0,1.1-.8,2.9-1.1,4.1-1.6,3.1-1.1,6.1-1.9,9.4-2.5-5.2-2.9-10.4-5.9-15.6-8.9.4,1.2.7,2.4.9,3.6v.9c.4,1.5.4,1.2.1-.7-.3,1.9.3,4.1.3,6s0,2.3-.3,3.2v-1.5c0,.7,0,1.2-.1,1.9-.4,2.1-1.2,4.3-2,6.3-2,4.9,1.3,11.9,5.9,14.4,5.3,2.8,11,1.9,15.4-2,8.4-7.2,15.6-15.5,22.3-24.3-7.3-4.3-14.7-8.5-21.9-12.8-2,3.9-4.1,7.6-6.5,11.4s-2.3,3.3-3.5,4.9c-.8,1.1-.7.9.4-.5-.4.4-.7.9-1.1,1.3-.7.8-1.3,1.6-2,2.4-2.7,3.2-5.6,6.3-8.7,9.1s-3.1,2.7-4.5,4-1.7,1.6-2.7,2.1c3.1-1.7-.3.1-.9.7,5.7,5.7,11.6,11.6,17.4,17.4,1.7-3.9,4-7.3,6.4-11,.5-.8.4-.5-.7.8.4-.4.7-.9,1.1-1.3.7-.8,1.3-1.6,2-2.3,1.5-1.6,3.1-3.1,4.7-4.5-7.2-2.9-14.4-6-21.8-8.9-1.2,10.8-2.4,21.6-3.9,32.5s2.1,7.7,5.1,10,7.2,3.3,11.1,2.3c18.4-5.3,34.2-17.2,44.5-33.3,3.6-5.6,1.3-14.3-4.5-17.4s-13.2-1.2-17.4,4.5c-5.2,7.1-10.4,14.2-15.8,21.2,7.3,4.3,14.7,8.5,21.9,12.8,8.9-15.2,18.3-30.2,28.1-44.9-7.3-4.3-14.7-8.5-21.9-12.8-1.5,2.8-2.9,5.6-4.7,8.3s-1.6,2.4-2.4,3.6-.8,1.3-1.3,1.9l.8-1.1c-.4.5-.8.9-1.2,1.5,6.7,5.1,13.4,10.3,20,15.4,4.7-6.7,8.9-13.5,12.7-20.6,4.1-7.5,9.2-15.8,9.8-24.4.3-4.9-1.5-10.2-5.1-13.6-5.5-5.3-14.4-5.7-20.7-1.3-7.2,5.1-13.4,12.4-19.2,19.1l18,18c1.7-2,3.5-3.9,5.5-5.6s.9-.8,1.3-1.2,1.9-1.5.5-.4.3-.1.5-.4c.7-.4,1.2-.9,1.9-1.3l-18.7-14.4c-3.5,11.6-7.1,23.1-11,34.6-1.6,4.8.8,10.4,4.5,13.4s9.2,3.1,14.2.9c11.1-4.8,22.3-9.6,33.4-14.4-5.1-6.7-10.3-13.4-15.4-20-6.5,6.4-13.1,12.8-19.6,19.4,6.7,5.1,13.4,10.3,20,15.4.8-1.1.7-.9-.4.5.4-.4.8-.9,1.2-1.3.4-.4.8-.8,1.3-1.2-1.5,1.1-1.6,1.2-.5.4-5.1-6.7-10.3-13.4-15.4-20-3.2,4-7.1,8.3-9.1,13.1-3.9,9.1,2.5,18.7,12.3,19.2s12.6-6.1,12.7-12.7v-.3c0-6.7-5.9-13.1-12.7-12.7s-12.6,5.6-12.7,12.7v.3c4.3-4.3,8.4-8.4,12.7-12.7h-.1c2.9,1.2,6,2.5,8.9,3.7l2.7,4.4v6.8c-.4,1.5-.9,2.1.3.5s.9-1.3,1.5-2,.8-1.1,1.2-1.6c2-2.7-1.6,2,.4-.5,4-5.1,5.2-11.4.9-16.7s-11.2-6.9-16.4-3.3-7.6,6.3-10.7,10.7-1.3,12.8,3.3,16.4,12.2,3.5,16.7-.9c6.5-6.4,13.1-12.8,19.6-19.4s4.8-11.8.9-16.7c-3.9-4.9-10.4-5.9-16.4-3.3-11.1,4.8-22.3,9.6-33.4,14.4l18.7,14.4c3.9-11.5,7.5-23,11-34.6s-.7-10.3-4.5-13.4-9.9-3.7-14.2-.9-10.7,7.9-15,13c-4.3,5.1-5.3,13.1,0,18s13.4,5.3,18,0c4.3-4.9,8.8-9.6,13.5-14.2s1.2-1.2,1.9-1.7c1.1-1.2,0,0-.5.4-1.6.9-3.3.9-5.1,0-3.2.3-5.6-1.1-7.1-4,0,0-1.2-3.2-.7-1.6-.8-3.1-.3-2.7-.4-1.3s.8-3.2,0-1.2-.4,1.1-.4,1.5c-.3,1.1,1.5-3.1.1-.4-5.5,11.4-11.6,22.3-18.8,32.7-3.6,5.2-1.3,12.8,3.3,16.4,4.5,3.6,12.7,3.9,16.7-.9s9.2-12.3,12.7-19.2c3.5-6.9,1.7-14-4.5-17.4s-13.5-1.3-17.4,4.5c-9.6,14.7-19,29.7-28.1,44.9-9.1,15.2-1.5,14.2,4.5,17.4,6.7,3.5,13.2,1.2,17.4-4.5s10.4-14.2,15.8-21.2c-7.3-4.3-14.7-8.5-21.9-12.8-.5.9-1.2,1.9-1.9,2.7l-.5.7c-.8,1.1-.7.9.5-.7.1.7-3.3,3.9-3.7,4.4-1.2,1.2-2.3,2.4-3.6,3.5s-1.7,1.5-2.5,2.1c-1.9,1.6,2.1-1.5,0,0s-5.9,4-9.1,5.6-1.7.8-2.7,1.2c-.9.4-.5.3,1.2-.4-.5.3-1.1.4-1.5.7-1.7.7-3.6,1.3-5.5,1.9l16.2,12.3c1.5-10.8,2.7-21.6,3.9-32.5.5-4.9-3.6-9.9-7.9-11.6-4.9-2-10-.8-13.9,2.7-7.3,6.4-13.5,14.6-17.5,23.4-2.3,5.1-2.4,11.4,2,15.4s10.8,5.3,15.4,2c16.2-11.8,29.7-26.7,38.7-44.6,3.1-5.9,1.7-14-4.5-17.4s-6.5-2.4-9.8-1.3-5.5,3.1-7.6,5.9c-.8,1.1-.8.9.3-.4-.4.5-.8.9-1.2,1.5-.8.9-1.6,1.9-2.4,2.8-1.5,1.7-3.1,3.5-4.7,5.2-3.3,3.5-6.8,6.8-10.4,10,7.1,4.1,14.2,8.3,21.2,12.4,4.1-10.4,4.3-22.7.9-33.4-2.1-6.8-8.7-10.3-15.6-8.9-15,3.1-28.5,10.3-40.1,20.2-4.8,4.1-4.5,12-.9,16.7,3.6,4.7,10.8,6.3,16.4,3.3s4.1-2.3,6.1-3.3,1.7-.9,2.7-1.5,1.2-.7,1.7-.9c-1.7.5-1.9.7-.5.4h-6.8l-5.2-4.1c.1.4.4.8.5,1.2.3.7.5,1.2.8,1.9l2.1,4.7c1.3,2.9,2.7,5.9,4,8.8,2.7,5.9,12.2,8.3,17.4,4.5,12.4-8.8,20.3-23,19.6-38.3-.3-5.1-3.1-9.6-7.9-11.6s-10.4-1.1-13.9,2.7-8.9,9.2-13.8,13.5-4.5,4-6.9,6-2.5,2-3.7,3.1-1.2,1.1-1.9,1.5c1.7-1.2.5-.4-.5.4,5.7,5.7,11.6,11.6,17.4,17.4,2.5-4.9,5.3-9.9,8.5-14.6s1.5-2,2.1-3.1.9-1.2,1.3-1.9,1.5-1.9.4-.5.5-.7.7-.9c.4-.5.8-.9,1.2-1.5.9-1.2,2-2.4,3.1-3.6,4.4-4.9,5.3-13.1,0-18-5.1-4.7-13-5.1-18,0s-2.4,2.4-3.6,3.5-3.9,2.7-3.9,3.2c0-.5,2-1.5,0,0s-1.2.9-1.9,1.3c-1.5,1.1-3.1,2-4.7,2.9,6.3,4.8,12.4,9.6,18.7,14.4,2.5-8.1,2.7-16.3,1.5-24.7s-12.6-11.9-18.7-7.6c-3.3,2.3-6.8,4.3-10.4,6s-2.8,1.9-.4.1c-.7.5-1.7.7-2.5.9-2,.7-4.1,1.3-6.1,1.9l14.4,18.7c.8-1.6,1.7-2.9,2.7-4.4.5-.8.3-.4-.8,1.1.4-.4.7-.8,1.1-1.2s1.1-1.2,1.7-1.7c.3-.3.5-.5.9-.8.7-.7.4-.4-1.1.8.3,0,1.6-1.1,2-1.3.7-.4,1.3-.8,2-1.2.5-.3.9-.5,1.5-.7-1.9.8-2.1.9-.8.4l-16.2-12.3c.5,5.3.9,10.7,1.1,16s2.4,8.7,6.3,11,9.2,2.5,12.8,0c6.9-4.9,12.3-11.6,14-20.2s-.3-10.2-4.5-13.4-9.9-3.9-14.2-.9-8,5.5-12,8.1c6.3,2.5,12.4,5.1,18.7,7.6-.1-.4-.3-.9-.4-1.3-.1-.9-.1-.5,0,1.1.1-.3,0-2.4,0-2.8,0-2.5-.8,2.3,0-.3s1.2-3.5,0-.4c2.1-4.8,2.4-9.8-.9-14.2s-8.5-6.1-13.4-4.5l-11.5,3.7c-6.3,2.1-11.1,8.9-8.9,15.6s8.8,11.1,15.6,8.9h0l.5.4Z"/>
      </g>
    </g>
  </g>
</svg>