<?xml version="1.0" encoding="UTF-8"?>
<svg xmlns="http://www.w3.org/2000/svg" version="1.1" viewBox="0 0 265 265">
  <defs>
    <style>
      .cls-1 {
        fill: #fff;
      }

      .cls-2 {
        fill: #0af;
      }
    </style>
  </defs>
  <!-- Generator: Adobe Illustrator 28.6.0, SVG Export Plug-In . SVG Version: 1.2.0 Build 709)  -->
  <g>
    <g id="Calque_1">
      <circle class="cls-2" cx="132.5" cy="132.5" r="132.5"/>
      <g>
        <path class="cls-1" d="M91.8,99.3c0,.2-.2.4-.3.6.1-.2.2-.4.3-.6Z"/>
        <path class="cls-1" d="M143.3,172.7c-2.9-4.2-6.2-7.9-9.7-11.3,0,0-.1-.1-.2-.2-3.4-3.2-7-6.3-10.7-9.2-1.6-1.3-3.3-2.6-5-3.8-.8-.6-1.5-1.1-2.3-1.7-1.4-1.1-2.9-2.1-4.3-3.2-.4-.3-.9-.7-1.3-1,0,0,0,0,0,0,0,0,0,0-.1-.1,0,0-.2-.1-.2-.2,0,0,0,0,0,0,0,0-.2-.1-.2-.2-.6-.5-1.2-1-1.9-1.5-.5-.4-1-.8-1.5-1.2-1.8-1.5-3.6-3.1-5.3-4.8h0c-.1-.1-.3-.3-.4-.4-1-1-2-2-2.9-3.1-.2-.2-.4-.4-.5-.6-.3-.3-.5-.6-.8-.9-.2-.3-.5-.6-.7-.8-.8-1.1-1.6-2.3-2.3-3.5-.5-.8-1-1.7-1.5-2.5,0,0,0,0,0,0-.3-.6-.6-1.1-.9-1.7,0-.2-.2-.4-.3-.6,0-.2-.1-.3-.2-.4,0,.2.2.5.4.8-.7-.9-1-2.6-1.3-3.7-.4-1.2-.6-2.5-.9-3.8,0,0,0,0,0,0h0c0-.1,0-.2,0-.2,0-.4,0-.8,0-1.2,0-1.2,0-2.4,0-3.7.1-.7.2-1.3.4-1.9.2-.9.5-1.8.8-2.7,0-.1.2-.3.2-.5,0,0,0,0,0,0,.2-.3.3-.6.5-.9.3-.6,1-1.4,1.4-2.1-.3.4-.5.3,0-.2.1-.1.3-.3.4-.4h0c.4-.4.7-.8,1.1-1.2.3-.3.7-.6,1-.9,0,0,0,0,0,0,.8-.5,1.6-.9,2.4-1.4.5-.2,1-.3,1.5-.5.2,0,.4-.1.7-.2,0,0,.2,0,.7,0,.4,0,.9,0,1.3,0s1.2,0,1.8,0h0c0,0,.1,0,.2,0h0s0,0,0,0c1.6.3,3.1.7,4.6,1.2.6.2,1.3.5,1.9.7,0,0,0,0,0,0,.3.1.6.3.9.4.1,0,.2.1.4.2,0,0,0,0,0,0,0,0,.2,0,.3.1h0c.2,0,.4.2.6.3.8.4,1.6.8,2.4,1.3,1.6.9,3.3,1.9,4.9,2.9.4.2.8.5,1.2.8,0,0,0,0,0,0,.4.2.7.5,1.1.7.2.1.4.3.7.4.4.3.8.6,1.2.8.2.1.4.3.6.4.2.1.9.7,1.4,1,0,0,0,0,0,0,0,0,0,0,0,0,0,0,0,0,0,0,0,0,0,0,0,0,0,0,0,0,0,0,1.1.8,2.1,1.7,3.1,2.6.4.4.9.7,1.4,1,.8.5,1.8.9,2.7,1.2h0s0,0,0,0c.5.1,1,.2,1.5.3h0c.7.1,1.5.1,2.2,0,.4,0,.7,0,1.1-.2,1.6-.3,3.2-1.1,4.4-2.4,0,0,0,0,0,0,0-.1.2-.2.2-.3.6-.6,1-1.4,1.4-2.2.5-1.1.9-2.4,1-3.7,0,0,0-.2,0-.3.2-2.6-.6-5.2-2.7-7-1.9-1.6-3.8-3.2-5.8-4.7-3.4-2.6-6.9-5-10.6-7.2-5.4-3.2-11.5-6.1-17.8-7.2-7.3-1.2-14.5-.6-21.2,2.9-5.3,2.8-9.8,7.6-12.7,12.8-6.6,12-5.5,25.6.2,37.7,5.6,11.9,15.8,20.7,26,28.5,2.7,2.1,5.5,4.1,8.2,6.2.6.5,1.3,1,1.9,1.4.1,0,.5.4.9.7h0s0,0,0,0,0,0,0,0c0,0,0,0,0,0,0,0,.1,0,.2.1h0c.4.3,1,.8,1.2.9.6.5,1.2,1,1.8,1.5,2.5,2.1,5,4.3,7.3,6.6.5.5.9.9,1.3,1.4.7.8,1.4,1.5,2.1,2.3.2.2.3.4.5.6h0s0,0,0,0c0,0,0,0,0,.1.6.7.3.4,0,0,.4.6,1,1.2,1.4,1.8,2.6,3.7,7.5,5.9,11.8,4.1.6-.6,1.2-1.3,1.6-2,1.3-2.3,2.7-4.5,4.3-6.6,0,0,0,0,0,0,0,0,0,0,.1-.1h0c0-1.7-.3-3.4-1.4-4.9ZM98.7,95c.4-.1.9-.2,1.2-.2-.6,0-1,.1-1.2.2Z"/>
        <path class="cls-1" d="M157.2,96.3c.3,0,.5-.2.8-.3.3,0,.2,0-.9.3,0,0,0,0,0,0Z"/>
        <path class="cls-1" d="M193.5,101.5c-4.9-13-14.7-23.8-29-25.2-11.6-1.2-22.7,5.1-28.6,14.7-1.2,1.8-2.1,3.8-2.9,5.9-1.3,3.7.6,8.2,3.8,10.4.9.6,1.8,1.1,2.8,1.3.7.1,1.3.2,2,.3,0,0,.2,0,.3,0,1.5,0,3-.3,4.3-.9.7-.3,1.3-.7,1.9-1.2.3-.2.5-.5.8-.7h0c1-1.1,1.9-2.4,2.4-4,.2-.4.4-.7.6-1.1.2-.3.4-.6.6-.9,0,0,0,0,0,0,.6-.6,1.2-1.2,1.8-1.8.5-.3.9-.7,1.3-1,.4-.3.9-.5,1.4-.8,0,0,0,0,0,0,0,0-.1,0-.2,0,0,0,.2,0,.2,0,.3-.1.6-.2.8-.3.5-.2,1.1-.4,1.6-.5.3,0,.5-.1.8-.2,1,0,2.2-.1,3.2,0,.4,0,.7.1,1.1.2.4.1.9.3,1.3.4.8.5,1.7,1,2.5,1.5,0,0,0,0,0,0,0,0,.2.2.3.2h0c.5.4.9.9,1.4,1.3.4.4.8.9,1.2,1.3,0,.1.2.2.2.3,0,0,0,0,0,0,.4.6,1.3,2,1.4,2.2.6,1.1,1.1,2.1,1.7,3.2,0,0,0,0,0,.1,0,0,0,0,0,0,.1.3.2.7.4,1,0,.3.2.6.3.9,0,.2.2.5.2.7.3,1.2.6,2.4.9,3.6,0,.6,0,1.3.1,1.9,0,.7,0,1.4,0,2,0,.2,0,.5,0,.7,0,.2,0,.3,0,.4,0,.1,0,.3-.1.4,0,.3-.2.5-.2.6-.1.4-.2.9-.4,1.3-.1.3-.2.5-.2.6,0,0,.2-.4.5-1.1,0,.5-.7,1.6-1.1,2.3-.2.2-.3.4-.4.6-.3.6-.7,1.1-1.1,1.6-.1.2-.3.4-.4.7h0c-.6.9-1.5,1.7-2.2,2.4-.3.4-.7.8-1,1.1,0,.1-.2.2-.3.3-.4.4-.8.8-1.2,1.2-.1.1-.2.2-.4.3-.3.3-.6.6-.8.9h0c-.4.5-.9.9-1.3,1.3-1.8,1.7-3.6,3.3-5.4,5h0c-.5.4-.9.8-1.4,1.2-.4.3-.8.6-1.1,1-.5.5-1.1.9-1.6,1.3-.1.1-.3.3-.5.4-3.2,2.7-6.4,5.3-9.5,8-1.1.9-2.1,1.8-3.2,2.8-2.4,2.2-4.8,4.4-7.1,6.8-.8.8-1.5,1.5-2.2,2.3,0,0,0,0,0,0-.1.2-.3.3-.4.5-3.7,4.1-7,8.5-9.8,13.4-.5.8-.8,1.7-1,2.6.7.8,1.4,1.5,2.1,2.3.2.2.3.4.5.6h0s0,0,0,0c0,0,0,0,0,0,0,0,0,0,0,0,.4.6,1,1.2,1.4,1.8,2.6,3.7,7.5,5.9,11.8,4.1.6-.6,1.2-1.3,1.6-2,1.3-2.3,2.7-4.5,4.3-6.6,0,0,0,0,0,0,0,0,0,0,.1-.1h0c.4-.5.8-.9,1.1-1.4.9-1.1,1.8-2.1,2.8-3.1,3.7-3.9,7.7-7.5,11.8-11,8.2-6.9,16.7-13.5,23.9-21.4,4.6-5.1,9-10.9,10.6-17.8,1.7-7,1.1-14.7-1.5-21.5ZM176.9,116.5c0,0,0,.4,0,.7,0-.2,0-.4,0-.7Z"/>
        <path class="cls-1" d="M97,115l8.6-2.8c-3.6-4.7-7.2-9.3-10.8-14-2.5,5.7-3.4,11.4-1.7,17.4,1.5,5.6,8.8,9.2,14,5.7s6-4.1,9-6.1c-4.7-3.6-9.3-7.2-14-10.8,0,.2-.7,2.3-.6,2.3.6-1.3.7-1.5.2-.6-.2.4-.4.7-.6,1.1-.6.8-.4.7.4-.4-.3.3-.5.6-.8.9-.5.5-2.6,2.1-.4.5,4.8,2.7,9.6,5.5,14.3,8.2,0-4-.3-8-.8-12s-1.2-5.5-3.8-7.5-5.5-2.7-8.3-1.7c-7.7,2.8-14.4,8.1-18.2,15.5s-1.7,7.4.7,10.6c2.3,3,6.3,4.4,10,3.4,6.8-1.8,13.4-4.7,19.2-8.7l-14-5.7c0-.7-.1-1.6,0-.4s0,1,0,1.4c0,1.1,0,2.2,0,3.2s-.2,1.9,0,.5,0,.2-.1.5c-.2,1.1-.5,2.1-.8,3.1-2.5,7.9,7,15,14,10.8s10-6.9,14.3-11.2c-4.5-4.5-9-9-13.5-13.5-6.2,7.1-11.7,14.9-16,23.3-1.9,3.7-1.7,8.6,1.5,11.5s2.6,1.9,4.2,2.4,5.6.4,7.3-1c8.6-6.5,16.6-13.5,24-21.3l-16.3-6.7c0,.9,0,1.8,0,2.7s-.2,1.7,0,.2,0,.1-.1.5c-.2.9-.4,1.7-.7,2.6s-.3.7-.4,1.1c-.4,1.1,1.1-2.1.1-.4s-.7,1.4-1.1,2.1-.6.8-.8,1.2c-.6,1,1.2-1.4.4-.5s-1.2,1.3-1.8,2-.8.6-1.1,1c-.8.8,1.9-1.4.3-.2l13,3.4c-1.2-2.6-2.3-5.1-3.5-7.7s-2.5-6.2-5.3-8.3c-4.4-3.4-9.5-2.6-14.2-.2s-4.9,2.6-7.3,4c3.8,5,7.7,10,11.5,15,.5-.4,1-.8,1.5-1.3,1-.8,0,.2-.4.3.9-.3,2.1-1.5,3-2.1,1.9-1.3,3.9-2.4,6-3.4s1-.5,1.5-.7c1.3-.6.6-.5-.2,0,.8-.6,2.2-.8,3.1-1.2,2.3-.8,4.6-1.4,7-1.9-3.9-2.2-7.8-4.4-11.7-6.7.3.9.5,1.8.7,2.7v.7c.3,1.1.3.9.1-.5-.2,1.4.2,3.1.2,4.5s0,1.7-.2,2.4v-1.1c0,.5,0,.9-.1,1.4-.3,1.6-.9,3.2-1.5,4.7-1.5,3.7,1,8.9,4.4,10.8,4,2.1,8.2,1.4,11.5-1.5,6.3-5.4,11.7-11.6,16.7-18.2-5.5-3.2-11-6.4-16.4-9.6-1.5,2.9-3.1,5.7-4.9,8.5s-1.7,2.5-2.6,3.7c-.6.8-.5.7.3-.4-.3.3-.5.7-.8,1-.5.6-1,1.2-1.5,1.8-2,2.4-4.2,4.7-6.5,6.8s-2.3,2-3.4,3-1.3,1.2-2,1.6c2.3-1.3-.2.1-.7.5,4.3,4.3,8.7,8.7,13,13,1.3-2.9,3-5.5,4.8-8.2.4-.6.3-.4-.5.6.3-.3.5-.7.8-1,.5-.6,1-1.2,1.5-1.7,1.1-1.2,2.3-2.3,3.5-3.4-5.4-2.2-10.8-4.5-16.3-6.7-.9,8.1-1.8,16.2-2.9,24.3s1.6,5.8,3.8,7.5,5.4,2.5,8.3,1.7c13.8-4,25.6-12.9,33.3-24.9,2.7-4.2,1-10.7-3.4-13s-9.9-.9-13,3.4c-3.9,5.3-7.8,10.6-11.8,15.9,5.5,3.2,11,6.4,16.4,9.6,6.7-11.4,13.7-22.6,21-33.6-5.5-3.2-11-6.4-16.4-9.6-1.1,2.1-2.2,4.2-3.5,6.2s-1.2,1.8-1.8,2.7-.6,1-1,1.4l.6-.8c-.3.4-.6.7-.9,1.1,5,3.8,10,7.7,15,11.5,3.5-5,6.7-10.1,9.5-15.4,3.1-5.6,6.9-11.8,7.3-18.3.2-3.7-1.1-7.6-3.8-10.2-4.1-4-10.8-4.3-15.5-1-5.4,3.8-10,9.3-14.4,14.3l13.5,13.5c1.3-1.5,2.6-2.9,4.1-4.2s.7-.6,1-.9,1.4-1.1.4-.3.2-.1.4-.3c.5-.3.9-.7,1.4-1l-14-10.8c-2.6,8.7-5.3,17.3-8.2,25.9-1.2,3.6.6,7.8,3.4,10s6.9,2.3,10.6.7c8.3-3.6,16.7-7.2,25-10.8-3.8-5-7.7-10-11.5-15-4.9,4.8-9.8,9.6-14.7,14.5,5,3.8,10,7.7,15,11.5.6-.8.5-.7-.3.4.3-.3.6-.7.9-1,.3-.3.6-.6,1-.9-1.1.8-1.2.9-.4.3-3.8-5-7.7-10-11.5-15-2.4,3-5.3,6.2-6.8,9.8-2.9,6.8,1.9,14,9.2,14.4s9.4-4.6,9.5-9.5v-.2c0-5-4.4-9.8-9.5-9.5s-9.4,4.2-9.5,9.5v.2c3.2-3.2,6.3-6.3,9.5-9.5h-.1c2.2.9,4.5,1.9,6.7,2.8l2,3.3v5.1c-.3,1.1-.7,1.6.2.4s.7-1,1.1-1.5.6-.8.9-1.2c1.5-2-1.2,1.5.3-.4,3-3.8,3.9-8.5.7-12.5s-8.4-5.2-12.3-2.5-5.7,4.7-8,8-1,9.6,2.5,12.3,9.1,2.6,12.5-.7c4.9-4.8,9.8-9.6,14.7-14.5s3.6-8.8.7-12.5-7.8-4.4-12.3-2.5c-8.3,3.6-16.7,7.2-25,10.8l14,10.8c2.9-8.6,5.6-17.2,8.2-25.9s-.5-7.7-3.4-10-7.4-2.8-10.6-.7-8,5.9-11.2,9.7c-3.2,3.8-4,9.8,0,13.5s10,4,13.5,0c3.2-3.7,6.6-7.2,10.1-10.6s.9-.9,1.4-1.3c.8-.9,0,0-.4.3-1.2.7-2.5.7-3.8,0-2.4.2-4.2-.8-5.3-3,0,0-.9-2.4-.5-1.2-.6-2.3-.2-2-.3-1s.6-2.4,0-.9-.3.8-.3,1.1c-.2.8,1.1-2.3.1-.3-4.1,8.5-8.7,16.7-14.1,24.5-2.7,3.9-1,9.6,2.5,12.3,3.4,2.7,9.5,2.9,12.5-.7s6.9-9.2,9.5-14.4,1.3-10.5-3.4-13-10.1-1-13,3.4c-7.2,11-14.2,22.2-21,33.6s-1.1,10.6,3.4,13c5,2.6,9.9.9,13-3.4s7.8-10.6,11.8-15.9c-5.5-3.2-11-6.4-16.4-9.6-.4.7-.9,1.4-1.4,2l-.4.5c-.6.8-.5.7.4-.5.1.5-2.5,2.9-2.8,3.3-.9.9-1.7,1.8-2.7,2.6s-1.3,1.1-1.9,1.6c-1.4,1.2,1.6-1.1,0,0s-4.4,3-6.8,4.2-1.3.6-2,.9c-.7.3-.4.2.9-.3-.4.2-.8.3-1.1.5-1.3.5-2.7,1-4.1,1.4l12.1,9.2c1.1-8.1,2-16.2,2.9-24.3.4-3.7-2.7-7.4-5.9-8.7-3.7-1.5-7.5-.6-10.4,2-5.5,4.8-10.1,10.9-13.1,17.5-1.7,3.8-1.8,8.5,1.5,11.5s8.1,4,11.5,1.5c12.1-8.8,22.2-20,29-33.4,2.3-4.4,1.3-10.5-3.4-13s-4.9-1.8-7.3-1-4.1,2.3-5.7,4.4c-.6.8-.6.7.2-.3-.3.4-.6.7-.9,1.1-.6.7-1.2,1.4-1.8,2.1-1.1,1.3-2.3,2.6-3.5,3.9-2.5,2.6-5.1,5.1-7.8,7.5,5.3,3.1,10.6,6.2,15.9,9.3,3.1-7.8,3.2-17,.7-25-1.6-5.1-6.5-7.7-11.7-6.7-11.2,2.3-21.3,7.7-30,15.1-3.6,3.1-3.4,9-.7,12.5s8.1,4.7,12.3,2.5,3.1-1.7,4.6-2.5,1.3-.7,2-1.1.9-.5,1.3-.7c-1.3.4-1.4.5-.4.3h-5.1l-3.9-3.1c.1.3.3.6.4.9.2.5.4.9.6,1.4l1.6,3.5c1,2.2,2,4.4,3,6.6,2,4.4,9.1,6.2,13,3.4,9.3-6.6,15.2-17.2,14.7-28.7-.2-3.8-2.3-7.2-5.9-8.7s-7.8-.8-10.4,2-6.7,6.9-10.3,10.1-3.4,3-5.2,4.5-1.9,1.5-2.8,2.3-.9.8-1.4,1.1c1.3-.9.4-.3-.4.3,4.3,4.3,8.7,8.7,13,13,1.9-3.7,4-7.4,6.4-10.9s1.1-1.5,1.6-2.3.7-.9,1-1.4,1.1-1.4.3-.4.4-.5.5-.7c.3-.4.6-.7.9-1.1.7-.9,1.5-1.8,2.3-2.7,3.3-3.7,4-9.8,0-13.5-3.8-3.5-9.7-3.8-13.5,0-.9.9-1.8,1.8-2.7,2.6s-2.9,2-2.9,2.4c0-.4,1.5-1.1,0,0s-.9.7-1.4,1c-1.1.8-2.3,1.5-3.5,2.2,4.7,3.6,9.3,7.2,14,10.8,1.9-6.1,2-12.2,1.1-18.5s-9.4-8.9-14-5.7c-2.5,1.7-5.1,3.2-7.8,4.5s-2.1,1.4-.3.1c-.5.4-1.3.5-1.9.7-1.5.5-3.1,1-4.6,1.4l10.8,14c.6-1.2,1.3-2.2,2-3.3.4-.6.2-.3-.6.8.3-.3.5-.6.8-.9.4-.4.8-.9,1.3-1.3.2-.2.4-.4.7-.6.5-.5.3-.3-.8.6.2,0,1.2-.8,1.5-1,.5-.3,1-.6,1.5-.9.4-.2.7-.4,1.1-.5-1.4.6-1.6.7-.6.3l-12.1-9.2c.4,4,.7,8,.8,12s1.8,6.5,4.7,8.2,6.9,1.9,9.6,0c5.2-3.7,9.2-8.7,10.5-15.1s-.2-7.6-3.4-10-7.4-2.9-10.6-.7-6,4.1-9,6.1c4.7,1.9,9.3,3.8,14,5.7-.1-.3-.2-.7-.3-1-.1-.7-.1-.4,0,.8.1-.2,0-1.8,0-2.1,0-1.9-.6,1.7,0-.2s.9-2.6,0-.3c1.6-3.6,1.8-7.3-.7-10.6s-6.4-4.6-10-3.4l-8.6,2.8c-4.7,1.6-8.3,6.7-6.7,11.7s6.6,8.3,11.7,6.7h0Z"/>
      </g>
    </g>
  </g>
</svg>