<?xml version="1.0" encoding="UTF-8"?>
<svg xmlns="http://www.w3.org/2000/svg" version="1.1" xmlns:xlink="http://www.w3.org/1999/xlink" viewBox="0 0 130 130">
  <defs>
    <style>
      .cls-1 {
        fill: #fff;
      }

      .cls-2 {
        fill: #005487;
      }

      .cls-3 {
        fill: none;
      }

      .cls-4 {
        clip-path: url(#clippath);
      }
    </style>
    <clipPath id="clippath">
      <rect class="cls-3" width="130" height="130"/>
    </clipPath>
  </defs>
  <!-- Generator: Adobe Illustrator 28.7.1, SVG Export Plug-In . SVG Version: 1.2.0 Build 142)  -->
  <g>
    <g id="Calque_1">
      <g class="cls-4">
        <path class="cls-1" d="M83.4,81.4c-.5,0-1,0-1.5-.1-4.6-.8-7.7-5.3-6.9-9.9l5.1-28.8c.4-2.3,1.6-4.2,3.5-5.5s4.1-1.8,6.4-1.4c4.6.8,7.7,5.3,6.9,9.9l-5.1,28.8c-.7,4.1-4.3,7-8.4,7h0ZM88.5,36.6c-1.5,0-3,.5-4.3,1.3-1.6,1.1-2.8,2.9-3.1,4.8l-5.1,28.8c-.7,4.1,2,8,6.1,8.7,4.1.7,8-2,8.7-6.1l5.1-28.8c.7-4.1-2-8-6.1-8.7-.4,0-.9-.1-1.3-.1h0Z"/>
        <path class="cls-1" d="M62.4,79.2c-4.7,0-8.5-3.8-8.5-8.5v-33.6c0-4.7,3.8-8.5,8.5-8.5s8.5,3.8,8.5,8.5v33.6c0,4.7-3.8,8.5-8.5,8.5h0ZM62.4,29.6c-4.1,0-7.5,3.4-7.5,7.5v33.6c0,4.1,3.4,7.5,7.5,7.5s7.5-3.4,7.5-7.5v-33.6c0-4.1-3.4-7.5-7.5-7.5h0Z"/>
        <path class="cls-1" d="M40.6,89.3c-4.4,0-8.1-3.4-8.5-7.9l-2.6-33.5c-.4-4.7,3.2-8.8,7.8-9.2,2.3-.2,4.5.5,6.2,2s2.8,3.5,3,5.8l2.6,33.5c.4,4.7-3.2,8.8-7.8,9.2h-.7,0ZM38,39.8h-.6c-2,.2-3.8,1.1-5.1,2.6s-2,3.5-1.8,5.5l2.6,33.5c.3,4.1,3.9,7.2,8.1,6.9,2-.2,3.8-1.1,5.1-2.6,1.3-1.5,2-3.5,1.8-5.5l-2.6-33.5c-.2-2-1.1-3.8-2.6-5.1-1.4-1.2-3.1-1.8-4.9-1.8h0Z"/>
        <path class="cls-1" d="M26.7,109.1c-3.3,0-6.5-2-7.9-5.3l-12.9-31c-1.8-4.3.2-9.4,4.6-11.1,2.1-.9,4.4-.9,6.5,0,2.1.9,3.7,2.5,4.6,4.6l12.9,31c1.8,4.3-.2,9.4-4.6,11.1h0c-1.1.4-2.2.6-3.3.6h0ZM13.8,62.1c-1,0-2,.2-2.9.6-3.8,1.6-5.7,6-4,9.8l12.9,31c1.6,3.8,6,5.7,9.8,4h0c3.8-1.6,5.7-6,4-9.8l-12.9-31c-.8-1.9-2.2-3.3-4.1-4.1-.9-.4-1.9-.6-2.9-.6h0Z"/>
        <path class="cls-1" d="M103.5,133.5h-23.4l32-31.9c1.5-1.5,3.4-2.3,5.5-2.3s4.3,1,5.9,2.7c3,3.4,2.8,8.8-.4,12l-19.6,19.6h0ZM82.5,132.5h20.6l19.3-19.3c2.8-2.8,3-7.6.3-10.6-1.3-1.5-3.2-2.4-5.1-2.4s-3.5.7-4.8,2l-30.3,30.2h0Z"/>
        <g>
          <g>
            <path class="cls-2" d="M90,36.2h0c4.4.8,7.3,4.9,6.5,9.3l-5.1,28.8c-.8,4.4-4.9,7.3-9.3,6.5h0c-4.4-.8-7.3-4.9-6.5-9.3l5.1-28.8c.8-4.4,4.9-7.3,9.3-6.5Z"/>
            <path class="cls-2" d="M62.4,29h0c4.4,0,8,3.6,8,8v33.6c0,4.4-3.6,8-8,8h0c-4.4,0-8-3.6-8-8v-33.6c0-4.4,3.6-8,8-8h0Z"/>
            <path class="cls-2" d="M37.4,39.3h0c4.4-.3,8.3,3,8.6,7.4l2.6,33.5c.3,4.4-3,8.3-7.4,8.6h0c-4.4.3-8.3-3-8.6-7.4l-2.6-33.5c-.3-4.4,3-8.3,7.4-8.6Z"/>
            <path class="cls-2" d="M10.7,62.2h0c4.1-1.7,8.8.2,10.5,4.3l12.9,31c1.7,4.1-.2,8.8-4.3,10.5h0c-4.1,1.7-8.8-.2-10.5-4.3l-12.9-31c-1.7-4.1.2-8.8,4.3-10.5h0Z"/>
            <path class="cls-2" d="M122.7,113.6l-19.5,19.4h-22l31.1-31.1c1.4-1.4,3.3-2.2,5.1-2.2s4,.8,5.5,2.5c2.8,3.2,2.7,8.3-.3,11.3h0Z"/>
            <path class="cls-2" d="M67,98.1c-.4-.4-1.2-.4-1.6,0-.6.6-.6,1.5,0,2.1.7.7,1.9.7,2.6,0,.9-.9.9-2.3,0-3.2-1.1-1.1-2.9-1.1-4,0-1.4,1.4-1.4,3.6,0,5,1.7,1.7,4.5,1.7,6.3,0,2.2-2.2,2.2-5.7,0-7.8-2.7-2.7-7.1-2.7-9.8,0-3.4,3.4-3.4,8.9,0,12.2,4.2,4.2,11.1,4.2,15.3,0,5.3-5.3,5.3-13.8,0-19.1-6.6-6.6-17.3-6.6-23.9,0-8.2,8.2-8.2,21.6,0,29.9,10.3,10.3,27,10.3,37.3,0,12.9-12.9,12.9-33.8,0-46.7-16.1-16.1-42.2-16.1-58.3,0-17.1,17.1-19.7,43.1-7.8,62.9h73.3l-7.2-16.3"/>
          </g>
          <path class="cls-1" d="M97.3,134H22.6l-.2-.3c-12.3-20.6-9.1-46.7,7.9-63.7,16.4-16.3,42.9-16.3,59.2,0,13,13,13.1,34.1.3,47.3l7.4,16.8h0ZM23.3,132.7h72l-6.4-14.5c-10.6,9.9-27.3,9.7-37.6-.6-4.1-4.1-6.4-9.6-6.4-15.4s2.3-11.3,6.4-15.4c3.3-3.3,7.7-5.1,12.4-5.1s9.1,1.8,12.4,5.1c5.5,5.5,5.5,14.5,0,20-4.5,4.5-11.7,4.5-16.2,0-3.6-3.6-3.6-9.5,0-13.2,1.4-1.4,3.3-2.2,5.4-2.2s3.9.8,5.4,2.2c2.4,2.4,2.4,6.3,0,8.7-.9.9-2.2,1.5-3.6,1.5h0c-1.3,0-2.6-.5-3.6-1.5-1.6-1.6-1.6-4.3,0-5.9,1.4-1.3,3.6-1.3,4.9,0,1.1,1.1,1.1,3,0,4.1-.9.9-2.5.9-3.5,0-.8-.8-.8-2.2,0-3,.7-.7,1.9-.7,2.6,0l-.9.9c-.2-.2-.5-.2-.7,0-.3.3-.3.8,0,1.1.4.4,1.2.4,1.6,0,.6-.6.6-1.6,0-2.3-.8-.8-2.3-.8-3.1,0-1.1,1.1-1.1,3,0,4.1.7.7,1.6,1.1,2.7,1.1h0c1,0,2-.4,2.7-1.1,1.9-1.9,1.9-5,0-6.9-1.2-1.2-2.8-1.9-4.4-1.9s-3.3.6-4.4,1.9c-3.1,3.1-3.1,8.2,0,11.3,4,4,10.4,4,14.4,0,5-5,5-13.2,0-18.2-3.1-3.1-7.2-4.8-11.5-4.8s-8.4,1.7-11.5,4.8c-3.9,3.9-6,9-6,14.5s2.1,10.6,6,14.5c10,10,26.4,10,36.4,0s12.6-33.1,0-45.8c-15.8-15.8-41.6-15.8-57.4,0-16.4,16.5-19.7,41.8-7.9,61.8h0Z"/>
        </g>
      </g>
    </g>
  </g>
</svg>