<?xml version="1.0" encoding="UTF-8"?>
<svg xmlns="http://www.w3.org/2000/svg" version="1.1" viewBox="0 0 1354.7 263.3">
  <defs>
    <style>
      .cls-1 {
        fill: #fff;
      }

      .cls-2 {
        fill: #005487;
      }
    </style>
  </defs>
  <!-- Generator: Adobe Illustrator 28.6.0, SVG Export Plug-In . SVG Version: 1.2.0 Build 709)  -->
  <g>
    <g id="Calque_1">
      <g>
        <path class="cls-2" d="M501.1,31.7v-1.7c0-17.5,11.5-30,29.2-30s25.6,9.6,26.5,24h-14.2c-.6-7.9-5.4-12.5-12.5-12.5s-14.4,7.3-14.4,18.3v1.7c0,11,5.2,18.3,14.4,18.3s11.9-4.6,12.3-12.9h14.2c-.8,14.8-10.6,24.6-26.5,24.6s-29.2-12.5-29.2-30h0l.2.2Z"/>
        <path class="cls-2" d="M561.2,39.2v-.8c0-13.3,9-22.3,22.9-22.3s22.7,10.6,21.7,25.8h-31.1c.6,6.5,3.7,9.8,9.4,9.8s7.5-2.3,8.5-5.2h13.1c-2.1,9.2-9.8,15-21.3,15s-22.9-8.8-22.9-22.3h-.2ZM592.4,34.2c-.4-5-3.1-8.1-8.5-8.1s-8.3,2.5-9.2,8.1h17.7Z"/>
        <path class="cls-2" d="M612.4,60.6V17.3h12.9l.4,6.5c2.1-3.8,6.3-7.7,13.6-7.7,11,0,15,6.9,15,16.5v27.7h-13.5v-24.4c0-6-1.9-9.2-6.9-9.2s-8.1,3.5-8.1,9.8v23.8h-13.5v.2Z"/>
        <path class="cls-2" d="M666,47.5v-20.6h-7.9v-9.6h7.9V3.5h13.5v13.8h11v9.6h-11v19.6c0,3.5,1.7,4.8,6,4.8s3.7-.4,5.2-.8v10c-2.3.8-5.6,1.2-8.5,1.2-11,0-16-4.8-16-14.2h-.2Z"/>
        <path class="cls-2" d="M696.8,60.6V17.3h12.9v8.5c2.3-5,6.3-9.2,12.9-9.2s1.9,0,2.7.2v12.9h-3.5c-7.7,0-11.5,3.8-11.5,11v20.2h-13.5v-.2Z"/>
        <path class="cls-2" d="M727.9,39.2v-.8c0-13.3,9-22.3,22.9-22.3s22.7,10.6,21.7,25.8h-31.1c.6,6.5,3.7,9.8,9.4,9.8s7.5-2.3,8.5-5.2h13.1c-2.1,9.2-9.8,15-21.3,15s-22.9-8.8-22.9-22.3h-.2ZM758.8,34.2c-.4-5-3.1-8.1-8.5-8.1s-8.3,2.5-9.2,8.1h17.7Z"/>
        <path class="cls-2" d="M501.1,132.1v-1.7c0-17.5,11.5-30,29.2-30s25.6,9.6,26.5,24h-14.2c-.6-7.9-5.4-12.5-12.5-12.5s-14.4,7.3-14.4,18.3v1.7c0,11,5.2,18.3,14.4,18.3s11.9-4.6,12.3-12.9h14.2c-.8,14.8-10.6,24.6-26.5,24.6s-29.2-12.5-29.2-30h0l.2.2Z"/>
        <path class="cls-2" d="M561.2,139.8v-.8c0-13.1,9-22.3,22.7-22.3s22.7,9.2,22.7,22.3v.8c0,13.1-9,22.3-22.7,22.3s-22.7-9.2-22.7-22.3ZM593.1,139.8v-.8c0-7.9-2.7-12.1-9-12.1s-9.2,4.2-9.2,12.1v.8c0,7.9,2.9,12.1,9.2,12.1s9-4.2,9-12.1Z"/>
        <path class="cls-2" d="M613.1,160.9v-43.3h12.9l.4,6.5c1.9-3.8,6.3-7.7,13.1-7.7s11,2.5,13.1,8.1c3.1-5,7.7-8.1,14-8.1,10.6,0,14.8,6.9,14.8,16.9v27.5h-13.5v-25c0-6-2.3-8.8-6.3-8.8s-7.5,3.3-7.5,10.4v23.3h-13.5v-24.8c0-6-1.9-8.8-6.3-8.8s-7.7,3.1-7.7,10.4v23.3h-13.5v.2Z"/>
        <path class="cls-2" d="M688.7,175.1v-57.5h12.5l.4,6.9c1.9-4,6.5-7.9,13.5-7.9,11.7,0,18.6,9.6,18.6,22.3v.8c0,12.9-6.9,22.3-18.6,22.3s-10.6-3.1-12.9-6.9v20.2h-13.5v-.2ZM720.2,139.8v-.8c0-8.1-3.1-12.3-9.2-12.3s-9.2,4.2-9.2,12.3v.8c0,7.9,3.1,12.3,9.2,12.3s9.2-4.2,9.2-12.3Z"/>
        <path class="cls-2" d="M740.2,160.9v-43.3h12.9v8.5c2.3-5,6.3-9.2,12.9-9.2s1.9,0,2.7.2v12.9h-3.5c-7.7,0-11.5,3.8-11.5,11v20.2h-13.5v-.2Z"/>
        <path class="cls-2" d="M771.3,139.8v-.8c0-13.3,9-22.3,22.9-22.3s22.7,10.6,21.7,25.8h-31.1c.6,6.5,3.7,9.8,9.4,9.8s7.5-2.3,8.5-5.2h13.1c-2.1,9.2-9.8,15-21.3,15s-22.9-8.8-22.9-22.3h-.2ZM802.3,134.6c-.4-5-3.1-8.1-8.5-8.1s-8.3,2.5-9.2,8.1h17.7Z"/>
        <path class="cls-2" d="M822.5,160.9v-43.3h12.9l.4,6.5c2.1-3.8,6.3-7.7,13.6-7.7,11,0,15,6.9,15,16.5v27.7h-13.5v-24.4c0-6-1.9-9.2-6.9-9.2s-8.1,3.5-8.1,9.8v23.8h-13.5v.2Z"/>
        <path class="cls-2" d="M870.5,139.8v-.8c0-12.7,6.9-22.3,18.5-22.3s10.6,2.9,13.1,6.7v-24.4h13.5v61.9h-12.5l-.4-6.9c-1.7,4-6.3,8.1-13.3,8.1-11.7,0-18.8-9.4-18.8-22.3h0ZM902.4,139.8v-.8c0-8.1-3.1-12.3-9.2-12.3s-9.2,4.2-9.2,12.3v.8c0,7.9,3.1,12.3,9.2,12.3s9.2-4.2,9.2-12.3Z"/>
        <path class="cls-2" d="M923.4,160.9v-43.3h12.9v8.5c2.3-5,6.3-9.2,12.9-9.2s1.9,0,2.7.2v12.9h-3.5c-7.7,0-11.5,3.8-11.5,11v20.2h-13.5v-.2Z"/>
        <path class="cls-2" d="M954.5,139.8v-.8c0-13.3,9-22.3,22.9-22.3s22.7,10.6,21.7,25.8h-31.1c.6,6.5,3.7,9.8,9.4,9.8s7.5-2.3,8.5-5.2h13.1c-2.1,9.2-9.8,15-21.3,15s-22.9-8.8-22.9-22.3h-.2ZM985.5,134.6c-.4-5-3.1-8.1-8.5-8.1s-8.3,2.5-9.2,8.1h17.7,0Z"/>
        <path class="cls-2" d="M1018.8,139.8v-.8c0-13.3,9-22.3,22.9-22.3s22.7,10.6,21.7,25.8h-31.1c.6,6.5,3.7,9.8,9.4,9.8s7.5-2.3,8.5-5.2h13.1c-2.1,9.2-9.8,15-21.3,15s-22.9-8.8-22.9-22.3h-.2ZM1049.9,134.6c-.4-5-3.1-8.1-8.5-8.1s-8.3,2.5-9.2,8.1h17.7,0Z"/>
        <path class="cls-2" d="M1073.4,148v-20.6h-7.9v-9.6h7.9v-13.8h13.5v13.8h11v9.6h-11v19.6c0,3.5,1.7,4.8,6,4.8s3.7-.4,5.2-.8v10c-2.3.8-5.6,1.2-8.5,1.2-11,0-16-4.8-16-14.2h-.2Z"/>
        <path class="cls-2" d="M1118.9,160.9v-59.4h26.1c12.7,0,22.1,6.7,22.1,19.2v.8c0,12.7-9.4,19.2-22.1,19.2h-12.1v20h-14v.2ZM1132.8,129.4h10.6c5.4,0,9-2.3,9-7.7v-.8c0-5.4-3.7-7.7-9-7.7h-10.6v16.3h0v-.2Z"/>
        <path class="cls-2" d="M1168.5,149c0-7.5,4.8-11.9,13.1-12.9l15-1.9v-2.7c0-3.1-2.1-5.2-6.3-5.2s-6.9,1.7-7.1,5h-12.7c.6-9.2,8.5-14.6,20.2-14.6s19.2,5.8,19.2,14.8v29.6h-12.5l-.4-6.3c-2.5,4.6-7.5,7.5-14,7.5s-14.2-5.6-14.2-13.1h0l-.2-.2ZM1196.8,145.3v-3.1l-10.2,1.3c-3.3.4-5,1.9-5,4.6s2.1,4.6,6,4.6,9.2-2.9,9.2-7.3h0v-.2Z"/>
        <path class="cls-2" d="M1217.3,160.9v-43.3h12.9v8.5c2.3-5,6.3-9.2,12.9-9.2s1.9,0,2.7.2v12.9h-3.5c-7.7,0-11.5,3.8-11.5,11v20.2h-13.5v-.2Z"/>
        <path class="cls-2" d="M1264.8,99v61.9h-13.5v-61.9h13.5Z"/>
        <path class="cls-2" d="M1271.4,139.8v-.8c0-13.3,9-22.3,22.9-22.3s22.7,10.6,21.7,25.8h-31.1c.6,6.5,3.7,9.8,9.4,9.8s7.5-2.3,8.5-5.2h13.1c-2.1,9.2-9.8,15-21.3,15s-22.9-8.8-22.9-22.3h-.2ZM1302.5,134.6c-.4-5-3.1-8.1-8.5-8.1s-8.3,2.5-9.2,8.1h17.7,0Z"/>
        <path class="cls-2" d="M1322.5,160.9v-43.3h12.9v8.5c2.3-5,6.3-9.2,12.9-9.2s1.9,0,2.7.2v12.9h-3.5c-7.7,0-11.5,3.8-11.5,11v20.2h-13.5v-.2Z"/>
        <path class="cls-2" d="M546.2,261.4l-6.2-16.1h-26.9l-6.2,16.1h-7.1l23.3-59.4h7.7l23.3,59.4h-7.9ZM515.5,239.1h22.3l-11.1-29.2-11.1,29.2h0Z"/>
        <path class="cls-2" d="M556.2,243h7.1c.8,9.6,7.7,13.3,16.5,13.3s14.6-3.5,14.6-10.4v-.6c0-5.8-4-8.8-16.5-11-14.8-2.5-19.6-7.7-19.6-16.1v-.8c0-9,7.9-16.1,20.6-16.1s20.4,5.8,21.7,17.7h-7.1c-1-7.7-6.5-11.5-14.4-11.5s-13.6,3.8-13.6,10v.6c0,5.6,3.5,8.5,15.2,10.4,14,2.3,21.1,6.9,21.1,16.7v.8c0,9.4-8.1,16.7-22.1,16.7s-22.7-6.7-23.5-19.4h0v-.2Z"/>
        <path class="cls-2" d="M610.2,261.4v-59.4h22.7c11.5,0,19,4.6,19,15.4v.8c0,5.4-2.5,9.6-7.1,11.7,6.2,1.9,9.8,7.3,9.8,13.8v1.3c0,10.8-8.5,16.3-19.8,16.3h-24.6ZM617.2,228h15.8c7.9,0,11.5-3.7,11.5-9.6v-.8c0-7.1-4.6-9.4-11.9-9.4h-15.4v19.8h0ZM617.2,255.3h17.3c7.5,0,12.9-3.1,12.9-10.4v-1.2c0-6.3-4.2-9.8-11.9-9.8h-18.1v21.3h-.2Z"/>
        <path class="cls-2" d="M663.3,261.4v-59.4h7.1v53.3h26.1v6.2h-33.3Z"/>
      </g>
      <g>
        <path class="cls-2" d="M429,13.7v235.1h-203.9c-5.8-37.5-8.9-76.9-8.9-117.6s3.1-80.1,8.9-117.6h203.9Z"/>
        <path class="cls-2" d="M54.9,248.8c3.4-7.4,6.9-14.9,10.3-22.3,5.6.6,11-2.1,13.7-6.9,3.8-6.6.2-13.4,0-13.7-3.8-.7-23.3-4.5-29.2-18.9-.5-1.3-4.5-11.1,0-15.4,2.2-2.2,5.9-2.4,8.6-1.7,5.2,1.4,5.6,6.1,10.3,10.3,6.4,5.8,18.3,8.6,25.7,3.4,4.5-3.1,6.9-8.9,6.9-13.7s-3.5-7.5-5.1-15.4c-1-4.6-2-9.5,0-13.7,5.1-10.8,26.3-9.3,29-17.6,1.3-4,.9-8.2.9-8.2-.2-1.3-.2-2.4-.7-3.4-.9-1.9-2.5-3-3.4-3.4-18.3-13.8-25.1-27.6-27.9-37.1-7.6-25.4.4-57.3.4-57.3H13.8v235.1h41.2,0Z"/>
        <circle class="cls-1" cx="53.1" cy="68.6" r="12"/>
        <path class="cls-1" d="M387.9,248.8c-3.4-7.4-6.9-14.9-10.3-22.3-5.6.6-11-2.1-13.7-6.9-3.8-6.6-.2-13.4,0-13.7,3.8-.7,23.3-4.5,29.2-18.9.5-1.3,4.5-11.1,0-15.4-2.2-2.2-5.9-2.4-8.6-1.7-5.2,1.4-5.6,6.1-10.3,10.3-6.4,5.8-18.3,8.6-25.7,3.4-4.5-3.1-6.9-8.9-6.9-13.7s3.5-7.5,5.1-15.4c1-4.6,2-9.5,0-13.7-5.1-10.8-26.3-9.3-29-17.6-1.3-4-.9-8.2-.9-8.2.2-1.3.2-2.4.7-3.4.9-1.9,2.5-3,3.4-3.4,18.3-13.8,25.1-27.6,27.9-37.1,7.6-25.4-.4-57.3-.4-57.3h80.6v235.1h-41.2,0Z"/>
        <circle class="cls-2" cx="389.6" cy="68.6" r="12"/>
        <path class="cls-2" d="M267.1,87.2h0c7.5,1.3,12.4,8.5,11.1,15.9l-8.8,49.2c-1.3,7.5-8.5,12.4-15.9,11.1h0c-7.5-1.3-12.4-8.5-11.1-15.9l8.8-49.2c1.3-7.5,8.5-12.4,15.9-11.1h0Z"/>
        <path class="cls-1" d="M255.9,164.6c-.8,0-1.7,0-2.6-.2-7.9-1.4-13.2-9-11.8-16.9l8.8-49.3c.7-3.8,2.8-7.2,6-9.4s7.1-3.1,10.9-2.4c7.9,1.4,13.2,9,11.8,16.9l-8.8,49.3c-1.3,7.1-7.4,12-14.4,12h.1ZM264.6,87.8c-2.6,0-5.1.8-7.3,2.3-2.8,2-4.7,4.9-5.3,8.3l-8.8,49.3c-1.3,7,3.4,13.7,10.4,14.9,7,1.3,13.7-3.4,14.9-10.4l8.8-49.3c1.3-7-3.4-13.7-10.4-14.9-.8,0-1.5-.2-2.3-.2h0Z"/>
        <path class="cls-2" d="M219.9,74.9h0c7.6,0,13.7,6.1,13.7,13.7v57.4c0,7.6-6.1,13.7-13.7,13.7h0c-7.6,0-13.7-6.1-13.7-13.7v-57.4c0-7.6,6.1-13.7,13.7-13.7Z"/>
        <path class="cls-1" d="M219.9,160.7c-8,0-14.6-6.5-14.6-14.6v-57.5c0-8,6.5-14.6,14.6-14.6s14.6,6.5,14.6,14.6v57.5c0,8-6.5,14.6-14.6,14.6ZM219.9,75.8c-7.1,0-12.9,5.8-12.9,12.9v57.5c0,7.1,5.8,12.9,12.9,12.9s12.9-5.8,12.9-12.9v-57.5c0-7.1-5.8-12.9-12.9-12.9Z"/>
        <path class="cls-2" d="M177.1,92.5h0c7.6-.6,14.2,5.1,14.7,12.6l4.4,57.3c.6,7.6-5.1,14.2-12.6,14.8h0c-7.6.6-14.2-5.1-14.7-12.6l-4.4-57.3c-.6-7.6,5.1-14.2,12.6-14.8h0Z"/>
        <path class="cls-1" d="M182.7,178.1c-7.5,0-13.9-5.8-14.5-13.5l-4.4-57.3c-.6-8,5.4-15,13.4-15.7,3.9-.3,7.7.9,10.6,3.5s4.8,6.1,5.1,10l4.4,57.3c.6,8-5.4,15-13.4,15.7h-1.2ZM178.3,93.3h-1c-3.4.3-6.5,1.9-8.8,4.5s-3.3,5.9-3.1,9.4l4.4,57.3c.5,7.1,6.8,12.4,13.8,11.8,3.4-.3,6.5-1.9,8.8-4.5,2.2-2.6,3.3-5.9,3.1-9.4l-4.4-57.3c-.3-3.4-1.9-6.5-4.5-8.8-2.4-2-5.3-3.1-8.3-3.1h0Z"/>
        <path class="cls-2" d="M131.5,131.7h0c7-2.9,15,.4,18,7.4l22.1,53c2.9,7-.4,15-7.4,18h0c-7,2.9-15-.4-18-7.4l-22.1-53c-2.9-7,.4-15,7.4-18Z"/>
        <path class="cls-1" d="M158.9,212c-5.7,0-11.2-3.4-13.5-9l-22.1-53c-3.1-7.4.4-16,7.9-19.1,3.6-1.5,7.6-1.5,11.2,0,3.6,1.5,6.4,4.3,7.9,7.9l22.1,53c3.1,7.4-.4,16-7.8,19.1h0c-1.8.8-3.7,1.1-5.6,1.1h0ZM136.8,131.5c-1.7,0-3.3.3-5,1-6.5,2.7-9.7,10.3-6.9,16.8l22.1,53c2.7,6.5,10.3,9.7,16.8,6.9h0c6.5-2.7,9.7-10.3,6.9-16.8l-22.1-53c-1.3-3.2-3.8-5.6-7-6.9-1.6-.7-3.2-1-4.9-1h0Z"/>
        <path class="cls-2" d="M323.2,219.6l-33.3,33.2h-37.6l53.3-53.2c2.5-2.5,5.7-3.7,8.8-3.7s6.9,1.5,9.4,4.3c4.9,5.5,4.6,14.2-.6,19.3h0Z"/>
        <path class="cls-1" d="M290.3,253.6h-40.1l54.8-54.6c2.6-2.5,5.9-3.9,9.4-3.9s7.4,1.7,10,4.6c5.1,5.8,4.9,15.1-.6,20.5l-33.5,33.4h0ZM254.3,251.9h35.2l33-32.9c4.9-4.8,5.1-13,.5-18.2-2.3-2.6-5.4-4-8.7-4s-6,1.2-8.2,3.5l-51.8,51.7h0Z"/>
        <path class="cls-2" d="M227.8,193.1c-.8-.8-2-.8-2.8,0s-1,2.5,0,3.5,3.2,1.2,4.4,0,1.5-4,0-5.5-5-1.9-6.9,0-2.4,6.2,0,8.6c3,3,7.8,3,10.7,0,3.7-3.7,3.7-9.7,0-13.4s-12.1-4.6-16.7,0c-5.8,5.8-5.8,15.1,0,20.9,7.2,7.2,18.9,7.2,26.2,0,9-9,9-23.7,0-32.7s-29.6-11.3-40.9,0c-14.1,14.1-14.1,37,0,51.1,17.6,17.6,46.2,17.6,63.9,0,22-22.1,22-57.8,0-79.9-27.5-27.5-72.2-27.5-99.8,0-29.2,29.2-33.6,73.8-13.4,107.7h125.5l-12.3-27.8"/>
        <path class="cls-1" d="M279.6,254.6h-127.8l-.3-.5c-21-35.2-15.5-80,13.5-109,28-27.9,73.4-27.9,101.4,0,22.2,22.3,22.4,58.4.5,80.9l12.7,28.7h0ZM153.1,252.4h123.1l-11-24.8c-18.1,16.9-46.6,16.5-64.3-1.1-7-7-10.9-16.4-10.9-26.3s3.9-19.3,10.9-26.3,13.2-8.8,21.2-8.8,15.6,3.1,21.2,8.8c9.4,9.4,9.4,24.8,0,34.3-7.7,7.7-20.1,7.7-27.7,0-6.2-6.2-6.2-16.3,0-22.5s5.7-3.8,9.2-3.8,6.7,1.3,9.2,3.8c4.1,4.1,4.1,10.8,0,14.9-1.6,1.6-3.8,2.5-6.1,2.5h0c-2.3,0-4.5-.9-6.2-2.5-2.8-2.8-2.8-7.3,0-10.1s6.1-2.3,8.4,0c1.9,1.9,1.9,5.1,0,7.1-1.6,1.6-4.3,1.6-6,0-1.4-1.4-1.4-3.7,0-5.1,1.2-1.2,3.2-1.2,4.4,0l-1.6,1.6c-.3-.3-.9-.3-1.3,0-.5.5-.5,1.4,0,1.9.8.8,2.1.8,2.8,0,1.1-1.1,1.1-2.8,0-3.9-1.5-1.5-3.8-1.5-5.3,0s-1.9,5.1,0,7,2.8,1.9,4.6,1.9h0c1.7,0,3.3-.7,4.6-1.9,3.3-3.3,3.3-8.6,0-11.8-2-2-4.7-3.2-7.6-3.2s-5.6,1.1-7.6,3.2c-5.3,5.3-5.3,14,0,19.4,6.8,6.8,17.8,6.8,24.6,0,8.6-8.6,8.6-22.6,0-31.1-5.3-5.3-12.2-8.2-19.7-8.2s-14.4,2.9-19.6,8.2c-6.6,6.6-10.3,15.4-10.3,24.8s3.6,18.2,10.3,24.8c17.2,17.2,45.1,17.2,62.3,0,21.6-21.6,21.6-56.7,0-78.3s-71.1-27.1-98.2,0c-28.1,28.1-33.6,71.6-13.5,105.8h0v-.3Z"/>
        <path class="cls-2" d="M429,13.7v235.1H13.8V13.7h415.3M442.8,0H0v262.6h442.7V0h0Z"/>
      </g>
    </g>
  </g>
</svg>