<?xml version="1.0" encoding="UTF-8"?>
<svg xmlns="http://www.w3.org/2000/svg" version="1.1" viewBox="0 0 265 265">
  <defs>
    <style>
      .cls-1 {
        fill: #005387;
      }

      .cls-2 {
        fill: #fff;
      }
    </style>
  </defs>
  <!-- Generator: Adobe Illustrator 28.6.0, SVG Export Plug-In . SVG Version: 1.2.0 Build 709)  -->
  <g>
    <g id="Calque_1">
      <circle class="cls-1" cx="132.5" cy="132.5" r="132.5"/>
      <g>
        <path class="cls-2" d="M77.3,196.9l42.1.6c13.8.2,27.7.8,41.5.3,8-.3,16.1-1.3,23.8-3.6s5.3-5.2,4.3-8.8-4.2-6-7.5-5-3.2.9-4.8,1.2-1.6.3-2.4.5-.8.1-1.2.2c-.2,0-.5,0-.7.1.8-.1.9-.1.2,0-3.2.5-6.5.8-9.7.9-6.8.4-13.6.2-20.4.1-13.9-.2-27.7-.4-41.6-.6-7.9-.1-15.7-.2-23.6-.3s-6.3,3.3-6.1,7.1,2.7,7.1,6.1,7.1h0Z"/>
        <path class="cls-2" d="M190.2,189.6c-.5-7.3-1.2-14.6-1.3-21.9,0-1.7,0-3.3,0-5s.1-1.9.2-2.9,0-.8.1-1.1c.2-1.9-.3,1.5,0-.4.6-3.5,1.3-7,1.9-10.4,2.8-14.5,3.4-29.3,3-44-.2-8.1-.7-16.1-1.2-24.2s-3.1-7.3-7.1-7.1-7.4,3.1-7.1,7.1c.8,14.3,1.7,28.6,1.1,42.9-.2,3.5-.4,7.1-.8,10.6s-.2,1.7-.3,2.6-.1.9-.2,1.4,0,1.3,0-.2c0,1.9-.6,3.8-.9,5.7-1.3,7.4-3.1,14.8-3.2,22.4,0,8.2.8,16.4,1.3,24.5s3.1,7.3,7.1,7.1c3.7-.2,7.4-3.1,7.1-7.1h0Z"/>
        <path class="cls-2" d="M84.4,86.2c25.3-2.6,50.7-4.2,76.1-4.8,7.2-.2,14.3-.2,21.5-.2,3.7,0,7.3-3.3,7.1-7.1s-3.1-7.1-7.1-7.1c-25.4,0-50.9,1-76.2,3-7.1.6-14.3,1.2-21.4,2-1.9.2-3.6.7-5,2.1s-2.2,3.3-2.1,5c.2,3.5,3.2,7.5,7.1,7.1h0Z"/>
        <path class="cls-2" d="M74.8,82.6c1.3,26.5.3,52.9-2.8,79.2s-1.7,14.6-1,22,3,7.3,7.1,7.1,7.5-3.2,7.1-7.1c-.6-6.6,0-13.1.8-19.7s1.5-13,2.1-19.5c1.1-13.2,1.7-26.4,1.6-39.7,0-7.5-.2-14.9-.6-22.3-.2-3.7-3.1-7.3-7.1-7.1s-7.3,3.1-7.1,7.1h0Z"/>
        <path class="cls-2" d="M94.4,95c-.9,4.9-1.7,9.9-2.2,14.9s-.4,4.6-.5,6.9,0,5.5,1.5,8c2.3,3.7,6.2,4.2,10.1,4.2s4.7,0,7.1,0c4.6,0,9.3.3,13.9,0s3.7-.5,5.5-1.3,2.6-1.4,2.5-1.5c0,.2-1.7.6-.1.3s.5,0,.8-.2c2.2-.6,4.3-2.1,5.4-4.1s1.2-6,1.2-9c0-2.3,0-4.7,0-7s.2-5.4-.3-8c-.8-4.2-4.3-7-8.4-7.3-1.9-.1-4,.2-5.9.4s-5,.4-7.5.6-5,.4-7.5.6-3.9.4-5.7,1.5-3,2.4-3.9,3.9c-1.5,2.6-2.6,6.4-1.8,9.4s3.9,5.5,7.3,5.8,2.4.1,3.6.2l-6.9-9c-.2.7-.4,1.4-.6,2.1s-1,2.6-.3.9c-1.2,2.7-1.4,5.4.6,7.9s4.6,3.2,7.5,2.6,6.2-2.5,8.4-4.9c-4-1-7.9-2.1-11.9-3.1.2.8.2.6,0-.4.2-1.1.1-1.2-.1-.5-1.1,2.6.6,6,2.6,7.5s5.6,2.2,7.9.6,2.4-1.6,3.6-2.4c-3.6-2.1-7.2-4.1-10.7-6.2-.1,1.6.5-1.3,0,.2s-.8,1.9,0,.3c-1.3,2.8-1.3,6.4,1.1,8.6s6,3,8.6,1.1,2.6-1.8,3.9-2.7c-3.6-2.1-7.2-4.1-10.7-6.2-.2,2,0,4,.3,6,.6,3.7,5.4,6.1,8.8,5s5.6-4.8,5-8.8c.3,2,0,0,0-.4s0-1.2.1-1.8c.6-5.3-6.6-9.1-10.7-6.2s-2.6,1.8-3.9,2.7c3.3,3.3,6.5,6.5,9.8,9.8,1.2-2.6,1.8-4.8,2-7.7.4-5.3-6.4-9.1-10.7-6.2s-2.4,1.6-3.6,2.4l10.5,8.1c.9-2,.8-4.6.1-6.7-1.5-4.8-8.2-7.3-11.9-3.1s-1,.9-1,1c0-.4,1.2-.8,0-.2-.1,0-.3.2-.4.2-.5.2-.3.2.6-.2,0,.1-1.3.3-1.4.4l8.1,10.5c.9-2.1,1.8-4.2,2.3-6.4,1.2-4.6-2.2-8.8-6.9-9s-2.4,0-3.6-.2l3.6,1-.3-.2,3.3,4.3c.9,2.8-.3,3.5,0,2.2s.2-.7.2-1,.4-1.2,0-.1l-.2.5c.4-.6.2-.5-.5.5.4-.4.7-.3-.6.4l-.5.2c-.4.3-.9.4-1.5.3.5-.4,2.1-.2,2.8-.2,3.4-.3,6.7-.6,10.1-.8s3.3-.3,4.9-.4,1.5-.1,2.3-.2.6,0,.9,0c-3.9-4.7-5.6-6-5-3.8.1.5,0,.3-.1-.9-.2.6,0,1.5,0,2.2s0,1.8,0,2.6c0,1.8,0,3.5,0,5.3s0,3.3,0,5,0,1.5,0,2.2c-.8-6.9,6.4-5.6,3.3-5.1s-.6.1-1,.2c-1.1.3-2.2.8-3.1,1.4s-2.5,1.4-.6.5c-1.1.5.5-.6.5,0s-1.1,0-1,0c-1,0-1.9,0-2.9,0-3.5,0-6.9,0-10.4,0s-3.4,0-5,0-1.6,0-2.4,0-.8,0-1.2,0c-2.1-.1-.9.7,3.8,2.6l.4,1c.5,1.6.1,1.3.1.7s0-1,0-1.6c0-1,.1-1.9.2-2.9.1-1.9.3-3.8.5-5.7s.2-1.9.3-2.8c0,.2-.2,1.5,0,.2s.1-.9.2-1.4c.3-2,.6-4,1-5.9.7-3.7-1-7.9-5-8.8s-8,1.1-8.8,5h0Z"/>
        <path class="cls-2" d="M152.9,102c4.1,0,8.2,0,12.3,0s2.8-.6,3.8-1.6,1.6-2.5,1.6-3.8c-.1-2.9-2.4-5.4-5.4-5.4s-8.2,0-12.3,0-2.8.6-3.8,1.6-1.6,2.5-1.6,3.8c.1,2.9,2.4,5.4,5.4,5.4h0Z"/>
        <path class="cls-2" d="M154.3,126.9h11.9c1.4,0,2.8-.6,3.8-1.6s1.6-2.5,1.6-3.8-.5-2.8-1.6-3.8-2.3-1.6-3.8-1.6h-11.9c-1.4,0-2.8.6-3.8,1.6s-1.6,2.5-1.6,3.8.5,2.8,1.6,3.8,2.3,1.6,3.8,1.6h0Z"/>
        <path class="cls-2" d="M96.7,154.5c22.8-.3,45.6-.5,68.5-.8,2.8,0,5.5-2.4,5.4-5.4s-2.4-5.4-5.4-5.4c-22.8.3-45.6.5-68.5.8-2.8,0-5.5,2.4-5.4,5.4s2.4,5.4,5.4,5.4h0Z"/>
        <path class="cls-2" d="M100.3,178.8c20.7.7,41.4.3,62-1s5.5-2.3,5.4-5.4c-.1-2.7-2.4-5.5-5.4-5.4-20.6,1.3-41.3,1.7-62,1s-5.5,2.5-5.4,5.4,2.4,5.3,5.4,5.4h0Z"/>
      </g>
    </g>
  </g>
</svg>