<?xml version="1.0" encoding="UTF-8"?>
<svg xmlns="http://www.w3.org/2000/svg" version="1.1" viewBox="0 0 265 265">
  <defs>
    <style>
      .cls-1 {
        fill: #fff;
      }

      .cls-2 {
        fill: #dc0073;
      }
    </style>
  </defs>
  <!-- Generator: Adobe Illustrator 28.7.1, SVG Export Plug-In . SVG Version: 1.2.0 Build 142)  -->
  <g>
    <g id="Calque_1">
      <g id="Calque_1-2" data-name="Calque_1">
        <circle class="cls-1" cx="132.5" cy="132.5" r="132.5"/>
        <g>
          <path class="cls-2" d="M72.2,90.7c7.9,1.8,16.1,2.1,24.2,2,8,0,15.9,0,23.9,0,16,0,31.9-.3,47.9-.4s18-.2,26.9-.3,6.1-2.7,6-6-2.6-6-6-6c-31.6.4-63.2.7-94.8.9s-8.7,0-13.1,0-4.2-.2-6.3-.5-1.9-.2-.3,0c-.6,0-1.3-.2-1.9-.3-1.1-.2-2.2-.4-3.3-.7-3.1-.7-6.6.9-7.4,4.2s.9,6.6,4.2,7.4h0Z"/>
          <path class="cls-2" d="M188,87.9c2.5,23.4-2.2,46.8-2.1,70.3,0,7,.5,14,1.6,20.9.2,1.4,1.6,2.9,2.8,3.6s3.2,1.1,4.6.6,2.9-1.4,3.6-2.8.9-2.9.6-4.6-.1-.8-.2-1.2c-.1-.9.1,1.1,0,.2s-.2-1.4-.2-2.1c-.2-1.5-.3-3-.4-4.5-.2-2.9-.3-5.8-.3-8.7,0-5.8.2-11.5.6-17.3.7-11.6,2-23.1,2.2-34.7s0-13.1-.7-19.7-.6-3-1.8-4.2-2.7-1.8-4.2-1.8c-3,0-6.3,2.7-6,6h-.1Z"/>
          <path class="cls-2" d="M193.2,173.7c-32.4,1.5-64.6-2.9-97-3.2s-8.7,0-13,.1-4.4,0-6.5-.2-.9,0-1.4-.1c-.7,0-.6,0,.2,0-.3,0-.6,0-.9-.1-1.1-.2-2.1-.4-3.2-.7-3-.8-6.7,1-7.4,4.2s.9,6.5,4.2,7.4c8,2.1,16.4,1.4,24.6,1.4s16.1.3,24.1.7c16.2.8,32.5,2.1,48.7,2.6s18.4.3,27.6-.1,6.1-2.7,6-6-2.6-6.2-6-6h0Z"/>
          <path class="cls-2" d="M76.5,174.5c2.2-22.6,3-45.2,2.5-67.9,0-6.5-.4-12.9-.7-19.3s-2.6-6.2-6-6-6.2,2.6-6,6c1.2,22.6,1.2,45.3-.2,68s-.9,12.9-1.5,19.3,3,6.1,6,6,5.7-2.6,6-6h-.1Z"/>
          <path class="cls-2" d="M105.3,111.6c0-.2.2-.5.2-.7.2-.7.3-1.5.3-2.2v-.7c0-.6,0-1.3-.3-1.9s0-.2,0-.4c-.6-2-2.2-3.6-4.2-4.2-1.1-.3-2.1-.3-3.2,0-1,.3-1.9.8-2.6,1.5l-.4.4c-.4.5-.7.9-1.1,1.4s0,.2,0,.2c0,0,0,.2,0,.2-.2.5-.5,1.1-.7,1.6s0,.4-.2.5,0,.2,0,.3c0,.6-.2,1.2-.2,1.8s0,.4,0,.5c0,.6,0,1.2.2,1.8s0,.2,0,.3c0,.2,0,.4.2.6.2.8.5,1.5,1.1,2,.4.7,1,1.2,1.7,1.5.7.4,1.4.7,2.2.7.8.2,1.6,0,2.4,0l1.4-.6c.9-.5,1.6-1.3,2.2-2.2l.6-1.4c.3-1.1.3-2.1,0-3.2,0-.3-.2-.6-.2-.9l.2,1.6v-.9l-.2,1.6c0-.3,0-.6.3-.9l-.6,1.4c0-.3.3-.5.4-.8l-.9,1.2c0,0,.2-.3.4-.4l-10-2.6c0,.2,0,.4,0,.6l-.2-1.6v1l.2-1.6c0,.4,0,.7-.3,1.1-.3.8-.3,1.6,0,2.4,0,.8.3,1.5.7,2.2.4.7.9,1.3,1.5,1.7.6.5,1.3.9,2,1.1l1.6.2c1.1,0,2.1-.3,3-.8l1.2-.9c.7-.7,1.3-1.6,1.5-2.6h0v.2Z"/>
          <path class="cls-2" d="M93.4,126.2c-.5.5-1,1.1-1.3,1.7-.6,1.3-.9,2.1-.9,3.6s0,.2,0,.3c0,.6,0,1.2.3,1.8s.5,1.4.8,2,.8,1.2,1.3,1.7.5.4.7.6.5.4.7.5c.5.3,1.2.6,1.8.8,1.5.5,3.2.4,4.7,0s1.5-.5,2.1-.9,1.3-.9,1.9-1.4.4-.4.6-.6c.5-.6,1-1.3,1.4-2s1-2,1.3-3,.3-1.6.3-2,0-.2,0-.3v-.8c0-.3-.2-.6-.2-.9s-.3-.6-.3-.8-.2-.6-.4-.8c-.7-1.1-1.3-1.6-2.3-2.3s-1.3-.7-2.1-.8c-1.3-.2-2.6-.4-3.9,0s-1.1.4-1.5.6,0,0-.2,0c-.5.3-1.1.8-1.5,1.2s-1.1,1.3-1.6,2c-.4.7-.7,1.4-.7,2.2-.2.8,0,1.6,0,2.4.2.8.5,1.5,1.1,2,.4.7,1,1.2,1.7,1.5l1.4.6c1.1.3,2.1.3,3.2,0l1.4-.6c.9-.5,1.6-1.3,2.2-2.2,0,0,0-.1.2-.2l-.9,1.2c.2-.3.4-.5.7-.8l-1.2.9c0,0,.2-.2.4-.2l-1.4.6c0,0,.2,0,.3-.1l-1.6.2h.3l-1.6-.2c0,0,.3,0,.4.1l-1.4-.6s.2,0,.2.1l-1.2-.9h0c0,.1-.9-1.1-.9-1.1,0,0,0,.1,0,.2l-.6-1.4v.2l-.2-1.6v.3l.2-1.6c0,.4-.2.7-.4,1.1l.6-1.4c-.2.6-.5,1.1-.9,1.6l.9-1.2c-.2.3-.5.5-.7.8l1.2-.9c-.2.2-.5.3-.7.4l1.4-.6c-.3,0-.5.2-.8.2l1.6-.2h-.7l1.6.2c-.2,0-.4,0-.6-.2l1.4.6c0,0-.3,0-.4-.2l1.2.9c0,0-.2-.2-.3-.3l.9,1.2c0-.1-.2-.3-.3-.5l.6,1.4c0-.2,0-.4-.2-.6l.2,1.6v-.5l-.2,1.6c0-.2,0-.3,0-.4l-.6,1.4s0-.2.2-.3l-.9,1.2s0-.1.2-.2c.6-.5,1-1.2,1.2-1.9.4-.7.5-1.5.5-2.3s0-1.6-.5-2.3c-.2-.7-.7-1.4-1.2-1.9l-1.2-.9c-.9-.5-1.9-.8-3-.8l-1.6.2c-1,.3-1.9.8-2.6,1.5h0v.3Z"/>
          <path class="cls-2" d="M103.8,162.1c.2-.2.4-.4.5-.6.5-.6,1-1.2,1.4-1.8s.3-.4.4-.7c.3-.7.6-1.4.9-2.1s.4-2,.5-3,0-.5,0-.8c0-.8,0-1.6-.3-2.3-.6-1.9-1.7-3.4-3.4-4.5s-2.7-1.1-4-1-1.4,0-2.1.3-1.1.4-1.6.7-.2,0-.3.2c-.6.4-1.1.8-1.6,1.3s-.7.9-1.1,1.4,0,.2-.2.4c-.3.6-.5,1.1-.7,1.7s-.2,1.3-.3,1.9,0,.6,0,.8c0,.8,0,1.6.4,2.4s.6,1.5,1,2.2.9,1.3,1.5,1.7c.6.5,1.3.9,2,1.1.8.3,1.6.3,2.4.1.8,0,1.5-.3,2.2-.7l1.2-.9c.7-.7,1.3-1.6,1.5-2.6l.2-1.6c0-1.1-.3-2.1-.8-3l-.3-.6.6,1.4c0-.3-.2-.6-.3-.9l.2,1.6v-.8l-.2,1.6c0-.2,0-.4,0-.5l-.6,1.4c0-.2.2-.3.3-.5l-.9,1.2c0-.1.2-.2.3-.3l-1.2.9c.2-.1.3-.2.5-.3l-1.4.6c.2,0,.3-.1.5-.1l-1.6.2h.5l-1.6-.2c0,0,.3,0,.4.1l-1.4-.6c0,0,.2.1.3.2l-1.2-.9s.2.1.2.2l-.9-1.2c0,.1.2.2.2.4l-.6-1.4c0,.2,0,.4.2.6l-.2-1.6v1.3l.2-1.6c0,.5-.2,1.1-.4,1.6l.6-1.4c-.2.5-.5.9-.8,1.3l.9-1.2c-.2.3-.4.5-.6.7-.6.5-1,1.2-1.2,1.9-.4.7-.5,1.5-.5,2.3s0,1.6.5,2.3c.2.7.7,1.4,1.2,1.9,1.1,1,2.6,1.8,4.2,1.8l1.6-.2c1-.3,1.9-.8,2.6-1.5h0v-.3Z"/>
          <path class="cls-2" d="M120.5,114.7c17,0,33.9.6,50.9,1.7s6.1-2.9,6-6-2.6-5.8-6-6c-16.9-1.1-33.9-1.6-50.9-1.7s-6.1,2.8-6,6,2.6,6,6,6h0Z"/>
          <path class="cls-2" d="M121.1,138.2c16.1-.2,32.1-.9,48.2-2,3.1-.2,6.2-2.6,6-6s-2.6-6.2-6-6c-16,1.1-32.1,1.8-48.2,2s-6.1,2.7-6,6,2.6,6,6,6h0Z"/>
          <path class="cls-2" d="M116.2,160.6c9.9,1.9,19.9,1.9,29.9,1.1s19.3-2.2,29-2.6,6.1-2.7,6-6-2.6-6.2-6-6c-9.5.4-19,1.8-28.5,2.6-4.7.4-9.4.7-14.1.6s-4.8-.1-7.1-.4-.9,0-1.4-.1-2.4-.2-.8,0c-1.3,0-2.5-.4-3.8-.6-3.1-.6-6.6.9-7.4,4.2s.9,6.7,4.2,7.4h0v-.2Z"/>
        </g>
      </g>
    </g>
  </g>
</svg>