<?xml version="1.0" encoding="UTF-8"?>
<svg xmlns="http://www.w3.org/2000/svg" version="1.1" viewBox="0 0 265 265">
  <defs>
    <style>
      .cls-1 {
        fill: #fff;
      }

      .cls-2 {
        fill: #991653;
      }
    </style>
  </defs>
  <!-- Generator: Adobe Illustrator 28.6.0, SVG Export Plug-In . SVG Version: 1.2.0 Build 709)  -->
  <g>
    <g id="Calque_1">
      <circle class="cls-1" cx="132.5" cy="132.5" r="132.5"/>
      <g>
        <path class="cls-2" d="M69.3,135.1c9.2-9.9,18.1-20.4,27.9-29.8s10-7.7,16.5-9.4,14.5-3.7,21.6-2.7c11.9,1.6,23.7,8.3,33.5,14.9,9.9,6.8,18.8,15.3,26,24.9,4.6,6.1,15,.1,10.4-6.1-8.3-11.2-18.2-20.8-29.7-28.7s-24.9-15-38.6-16.9-15.4.5-22.9,2.2-14.1,4.2-20,8.8-11,10.6-16.2,16.2-11.2,12.1-16.8,18.1,3.2,14.2,8.5,8.5h0Z"/>
        <path class="cls-2" d="M60.4,138.8c15.4,24.2,41.5,49,72.4,44.7s30.1-9.3,43.4-17c11.9-6.9,25.5-15.2,29.4-29.3,2.1-7.4-9.5-10.6-11.6-3.2-3.2,11.4-16.7,18.1-26.3,23.5-11.3,6.3-23.6,12.3-36.5,14.2-25.7,3.7-47.8-19-60.5-38.9-4.1-6.5-14.5-.5-10.4,6.1h0Z"/>
        <path class="cls-2" d="M114.6,113.8c-9.9,9.1-12.4,24-1.4,33.4,9.6,8.2,26.9,8.5,37.1,1.1s9.8-23.2.3-32.4-23.7-11.1-33.6-1.9c-5.6,5.3,2.9,13.8,8.5,8.5,10.3-9.6,29.7,10.2,16.2,17-5.7,2.9-15,3.1-20.2-.9s-3.6-11.8,1.5-16.4-2.8-13.7-8.5-8.5h0Z"/>
        <path class="cls-2" d="M119.6,119.3c-2.5,5.6-10.1,17.6,0,20.4s6.8-.9,9.8-2.6,6.5-3.8,9.5-5.8l-8.2-8.2c-1,1.6-2,3-3.2,4.3-3.7,4.1-.2,12.2,5.8,10,.8-.3,1.6-.6,2.4-.9,3-1.1,5.1-4.1,4.2-7.4s-4.3-5.3-7.4-4.2-1.6.6-2.4.9l5.8,10c1.9-2.1,3.6-4.4,5.1-6.8,3-5-3.2-11.6-8.2-8.2s-4.4,2.9-6.6,4.2-1.9,1.1-2.9,1.7c-.7.4-1.3.7-2,1.1-1.7.7-1.3.8,1.1.2l2.6,1.5-.4-.4,1.8,4.2c-.2-1.5,2.7-6.1,3.5-8.1,1.3-3,.9-6.5-2.2-8.2s-6.9-.8-8.2,2.2h0Z"/>
        <path class="cls-2" d="M134.1,123.8c-2.8,1-4.9,2.3-7.1,4.2-5.1,4.5,1.6,13.3,7.3,9.4s2.4-1.5,3.9-1.9l-7.4-7.4c-1.8,5.2-5.9,14.1,2.4,16.3s8.7-4.3,13.9-5,6-2.5,6-6-2.8-6.4-6-6-5.5,1-8.2,2.2-2,1-3,1.6c-.7.5-1.4,1-2,1.5-.7.5,0,.5,2.1-.1l3.6,2.8-.3-.5.8,3c-.2.9,0,.6.3-.7.2-.6.4-1.2.6-1.8.5-1.4,1-2.8,1.4-4.1,1.5-4.3-3.2-8.7-7.4-7.4s-4.7,1.8-6.7,3.2l7.3,9.4c.5-.5,1.2-.9,1.8-1.1,3-1.1,5.1-4.1,4.2-7.4s-4.3-5.3-7.4-4.2h0Z"/>
      </g>
    </g>
  </g>
</svg>